<?xml version="1.0" encoding="utf-8"?>
<svg xmlns="http://www.w3.org/2000/svg" xmlns:xlink="http://www.w3.org/1999/xlink" width="600" height="400" viewBox="0 0 2400 1600">
<defs>
  <clipPath id="clip440">
    <rect x="0" y="0" width="2400" height="1600"/>
  </clipPath>
</defs>
<path clip-path="url(#clip440)" d="M0 1600 L2400 1600 L2400 8.88178e-14 L0 8.88178e-14  Z" fill="#ffffff" fill-rule="evenodd" fill-opacity="1"/>
<defs>
  <clipPath id="clip441">
    <rect x="480" y="0" width="1681" height="1600"/>
  </clipPath>
</defs>
<path clip-path="url(#clip440)" d="M249.542 1423.18 L2352.76 1423.18 L2352.76 123.472 L249.542 123.472  Z" fill="#ffffff" fill-rule="evenodd" fill-opacity="1"/>
<defs>
  <clipPath id="clip442">
    <rect x="249" y="123" width="2104" height="1301"/>
  </clipPath>
</defs>
<polyline clip-path="url(#clip442)" style="stroke:#000000; stroke-linecap:round; stroke-linejoin:round; stroke-width:2; stroke-opacity:0.1; fill:none" points="309.067,1423.18 309.067,123.472 "/>
<polyline clip-path="url(#clip442)" style="stroke:#000000; stroke-linecap:round; stroke-linejoin:round; stroke-width:2; stroke-opacity:0.1; fill:none" points="805.108,1423.18 805.108,123.472 "/>
<polyline clip-path="url(#clip442)" style="stroke:#000000; stroke-linecap:round; stroke-linejoin:round; stroke-width:2; stroke-opacity:0.1; fill:none" points="1301.15,1423.18 1301.15,123.472 "/>
<polyline clip-path="url(#clip442)" style="stroke:#000000; stroke-linecap:round; stroke-linejoin:round; stroke-width:2; stroke-opacity:0.1; fill:none" points="1797.19,1423.18 1797.19,123.472 "/>
<polyline clip-path="url(#clip442)" style="stroke:#000000; stroke-linecap:round; stroke-linejoin:round; stroke-width:2; stroke-opacity:0.1; fill:none" points="2293.23,1423.18 2293.23,123.472 "/>
<polyline clip-path="url(#clip440)" style="stroke:#000000; stroke-linecap:round; stroke-linejoin:round; stroke-width:4; stroke-opacity:1; fill:none" points="249.542,1423.18 2352.76,1423.18 "/>
<polyline clip-path="url(#clip440)" style="stroke:#000000; stroke-linecap:round; stroke-linejoin:round; stroke-width:4; stroke-opacity:1; fill:none" points="309.067,1423.18 309.067,1404.28 "/>
<polyline clip-path="url(#clip440)" style="stroke:#000000; stroke-linecap:round; stroke-linejoin:round; stroke-width:4; stroke-opacity:1; fill:none" points="805.108,1423.18 805.108,1404.28 "/>
<polyline clip-path="url(#clip440)" style="stroke:#000000; stroke-linecap:round; stroke-linejoin:round; stroke-width:4; stroke-opacity:1; fill:none" points="1301.15,1423.18 1301.15,1404.28 "/>
<polyline clip-path="url(#clip440)" style="stroke:#000000; stroke-linecap:round; stroke-linejoin:round; stroke-width:4; stroke-opacity:1; fill:none" points="1797.19,1423.18 1797.19,1404.28 "/>
<polyline clip-path="url(#clip440)" style="stroke:#000000; stroke-linecap:round; stroke-linejoin:round; stroke-width:4; stroke-opacity:1; fill:none" points="2293.23,1423.18 2293.23,1404.28 "/>
<path clip-path="url(#clip440)" d="M309.067 1454.1 Q305.456 1454.1 303.627 1457.66 Q301.822 1461.2 301.822 1468.33 Q301.822 1475.44 303.627 1479.01 Q305.456 1482.55 309.067 1482.55 Q312.701 1482.55 314.507 1479.01 Q316.335 1475.44 316.335 1468.33 Q316.335 1461.2 314.507 1457.66 Q312.701 1454.1 309.067 1454.1 M309.067 1450.39 Q314.877 1450.39 317.933 1455 Q321.011 1459.58 321.011 1468.33 Q321.011 1477.06 317.933 1481.67 Q314.877 1486.25 309.067 1486.25 Q303.257 1486.25 300.178 1481.67 Q297.123 1477.06 297.123 1468.33 Q297.123 1459.58 300.178 1455 Q303.257 1450.39 309.067 1450.39 Z" fill="#000000" fill-rule="nonzero" fill-opacity="1" /><path clip-path="url(#clip440)" d="M784.379 1481.64 L800.698 1481.64 L800.698 1485.58 L778.754 1485.58 L778.754 1481.64 Q781.416 1478.89 785.999 1474.26 Q790.606 1469.61 791.786 1468.27 Q794.032 1465.74 794.911 1464.01 Q795.814 1462.25 795.814 1460.56 Q795.814 1457.8 793.87 1456.07 Q791.948 1454.33 788.846 1454.33 Q786.647 1454.33 784.194 1455.09 Q781.763 1455.86 778.985 1457.41 L778.985 1452.69 Q781.809 1451.55 784.263 1450.97 Q786.717 1450.39 788.754 1450.39 Q794.124 1450.39 797.319 1453.08 Q800.513 1455.77 800.513 1460.26 Q800.513 1462.39 799.703 1464.31 Q798.916 1466.2 796.809 1468.8 Q796.231 1469.47 793.129 1472.69 Q790.027 1475.88 784.379 1481.64 Z" fill="#000000" fill-rule="nonzero" fill-opacity="1" /><path clip-path="url(#clip440)" d="M810.559 1451.02 L828.916 1451.02 L828.916 1454.96 L814.842 1454.96 L814.842 1463.43 Q815.86 1463.08 816.879 1462.92 Q817.897 1462.73 818.916 1462.73 Q824.703 1462.73 828.082 1465.9 Q831.462 1469.08 831.462 1474.49 Q831.462 1480.07 827.99 1483.17 Q824.518 1486.25 818.198 1486.25 Q816.022 1486.25 813.754 1485.88 Q811.508 1485.51 809.101 1484.77 L809.101 1480.07 Q811.184 1481.2 813.407 1481.76 Q815.629 1482.32 818.106 1482.32 Q822.11 1482.32 824.448 1480.21 Q826.786 1478.1 826.786 1474.49 Q826.786 1470.88 824.448 1468.77 Q822.11 1466.67 818.106 1466.67 Q816.231 1466.67 814.356 1467.08 Q812.504 1467.5 810.559 1468.38 L810.559 1451.02 Z" fill="#000000" fill-rule="nonzero" fill-opacity="1" /><path clip-path="url(#clip440)" d="M1275.85 1451.02 L1294.2 1451.02 L1294.2 1454.96 L1280.13 1454.96 L1280.13 1463.43 Q1281.15 1463.08 1282.17 1462.92 Q1283.19 1462.73 1284.2 1462.73 Q1289.99 1462.73 1293.37 1465.9 Q1296.75 1469.08 1296.75 1474.49 Q1296.75 1480.07 1293.28 1483.17 Q1289.81 1486.25 1283.49 1486.25 Q1281.31 1486.25 1279.04 1485.88 Q1276.8 1485.51 1274.39 1484.77 L1274.39 1480.07 Q1276.47 1481.2 1278.7 1481.76 Q1280.92 1482.32 1283.39 1482.32 Q1287.4 1482.32 1289.74 1480.21 Q1292.07 1478.1 1292.07 1474.49 Q1292.07 1470.88 1289.74 1468.77 Q1287.4 1466.67 1283.39 1466.67 Q1281.52 1466.67 1279.64 1467.08 Q1277.79 1467.5 1275.85 1468.38 L1275.85 1451.02 Z" fill="#000000" fill-rule="nonzero" fill-opacity="1" /><path clip-path="url(#clip440)" d="M1315.96 1454.1 Q1312.35 1454.1 1310.52 1457.66 Q1308.72 1461.2 1308.72 1468.33 Q1308.72 1475.44 1310.52 1479.01 Q1312.35 1482.55 1315.96 1482.55 Q1319.6 1482.55 1321.4 1479.01 Q1323.23 1475.44 1323.23 1468.33 Q1323.23 1461.2 1321.4 1457.66 Q1319.6 1454.1 1315.96 1454.1 M1315.96 1450.39 Q1321.77 1450.39 1324.83 1455 Q1327.91 1459.58 1327.91 1468.33 Q1327.91 1477.06 1324.83 1481.67 Q1321.77 1486.25 1315.96 1486.25 Q1310.15 1486.25 1307.07 1481.67 Q1304.02 1477.06 1304.02 1468.33 Q1304.02 1459.58 1307.07 1455 Q1310.15 1450.39 1315.96 1450.39 Z" fill="#000000" fill-rule="nonzero" fill-opacity="1" /><path clip-path="url(#clip440)" d="M1771.04 1451.02 L1793.27 1451.02 L1793.27 1453.01 L1780.72 1485.58 L1775.84 1485.58 L1787.64 1454.96 L1771.04 1454.96 L1771.04 1451.02 Z" fill="#000000" fill-rule="nonzero" fill-opacity="1" /><path clip-path="url(#clip440)" d="M1802.43 1451.02 L1820.79 1451.02 L1820.79 1454.96 L1806.72 1454.96 L1806.72 1463.43 Q1807.73 1463.08 1808.75 1462.92 Q1809.77 1462.73 1810.79 1462.73 Q1816.58 1462.73 1819.96 1465.9 Q1823.34 1469.08 1823.34 1474.49 Q1823.34 1480.07 1819.86 1483.17 Q1816.39 1486.25 1810.07 1486.25 Q1807.9 1486.25 1805.63 1485.88 Q1803.38 1485.51 1800.97 1484.77 L1800.97 1480.07 Q1803.06 1481.2 1805.28 1481.76 Q1807.5 1482.32 1809.98 1482.32 Q1813.98 1482.32 1816.32 1480.21 Q1818.66 1478.1 1818.66 1474.49 Q1818.66 1470.88 1816.32 1468.77 Q1813.98 1466.67 1809.98 1466.67 Q1808.1 1466.67 1806.23 1467.08 Q1804.38 1467.5 1802.43 1468.38 L1802.43 1451.02 Z" fill="#000000" fill-rule="nonzero" fill-opacity="1" /><path clip-path="url(#clip440)" d="M2252.84 1481.64 L2260.48 1481.64 L2260.48 1455.28 L2252.17 1456.95 L2252.17 1452.69 L2260.43 1451.02 L2265.11 1451.02 L2265.11 1481.64 L2272.74 1481.64 L2272.74 1485.58 L2252.84 1485.58 L2252.84 1481.64 Z" fill="#000000" fill-rule="nonzero" fill-opacity="1" /><path clip-path="url(#clip440)" d="M2292.19 1454.1 Q2288.58 1454.1 2286.75 1457.66 Q2284.94 1461.2 2284.94 1468.33 Q2284.94 1475.44 2286.75 1479.01 Q2288.58 1482.55 2292.19 1482.55 Q2295.82 1482.55 2297.63 1479.01 Q2299.46 1475.44 2299.46 1468.33 Q2299.46 1461.2 2297.63 1457.66 Q2295.82 1454.1 2292.19 1454.1 M2292.19 1450.39 Q2298 1450.39 2301.06 1455 Q2304.13 1459.58 2304.13 1468.33 Q2304.13 1477.06 2301.06 1481.67 Q2298 1486.25 2292.19 1486.25 Q2286.38 1486.25 2283.3 1481.67 Q2280.24 1477.06 2280.24 1468.33 Q2280.24 1459.58 2283.3 1455 Q2286.38 1450.39 2292.19 1450.39 Z" fill="#000000" fill-rule="nonzero" fill-opacity="1" /><path clip-path="url(#clip440)" d="M2322.35 1454.1 Q2318.74 1454.1 2316.91 1457.66 Q2315.11 1461.2 2315.11 1468.33 Q2315.11 1475.44 2316.91 1479.01 Q2318.74 1482.55 2322.35 1482.55 Q2325.99 1482.55 2327.79 1479.01 Q2329.62 1475.44 2329.62 1468.33 Q2329.62 1461.2 2327.79 1457.66 Q2325.99 1454.1 2322.35 1454.1 M2322.35 1450.39 Q2328.16 1450.39 2331.22 1455 Q2334.3 1459.58 2334.3 1468.33 Q2334.3 1477.06 2331.22 1481.67 Q2328.16 1486.25 2322.35 1486.25 Q2316.54 1486.25 2313.46 1481.67 Q2310.41 1477.06 2310.41 1468.33 Q2310.41 1459.58 2313.46 1455 Q2316.54 1450.39 2322.35 1450.39 Z" fill="#000000" fill-rule="nonzero" fill-opacity="1" /><path clip-path="url(#clip440)" d="M1198.93 1520.52 L1239.13 1520.52 L1239.13 1525.93 L1222.26 1525.93 L1222.26 1568.04 L1215.8 1568.04 L1215.8 1525.93 L1198.93 1525.93 L1198.93 1520.52 Z" fill="#000000" fill-rule="nonzero" fill-opacity="1" /><path clip-path="url(#clip440)" d="M1243.08 1532.4 L1248.93 1532.4 L1248.93 1568.04 L1243.08 1568.04 L1243.08 1532.4 M1243.08 1518.52 L1248.93 1518.52 L1248.93 1525.93 L1243.08 1525.93 L1243.08 1518.52 Z" fill="#000000" fill-rule="nonzero" fill-opacity="1" /><path clip-path="url(#clip440)" d="M1288.94 1539.24 Q1291.14 1535.29 1294.19 1533.41 Q1297.25 1531.54 1301.39 1531.54 Q1306.96 1531.54 1309.98 1535.45 Q1313.01 1539.33 1313.01 1546.53 L1313.01 1568.04 L1307.12 1568.04 L1307.12 1546.72 Q1307.12 1541.59 1305.3 1539.11 Q1303.49 1536.63 1299.76 1536.63 Q1295.21 1536.63 1292.57 1539.65 Q1289.93 1542.68 1289.93 1547.9 L1289.93 1568.04 L1284.04 1568.04 L1284.04 1546.72 Q1284.04 1541.56 1282.23 1539.11 Q1280.41 1536.63 1276.63 1536.63 Q1272.14 1536.63 1269.5 1539.68 Q1266.85 1542.71 1266.85 1547.9 L1266.85 1568.04 L1260.97 1568.04 L1260.97 1532.4 L1266.85 1532.4 L1266.85 1537.93 Q1268.86 1534.66 1271.66 1533.1 Q1274.46 1531.54 1278.31 1531.54 Q1282.2 1531.54 1284.9 1533.51 Q1287.64 1535.48 1288.94 1539.24 Z" fill="#000000" fill-rule="nonzero" fill-opacity="1" /><path clip-path="url(#clip440)" d="M1355.18 1548.76 L1355.18 1551.62 L1328.25 1551.62 Q1328.63 1557.67 1331.88 1560.85 Q1335.16 1564 1340.98 1564 Q1344.36 1564 1347.51 1563.17 Q1350.69 1562.35 1353.81 1560.69 L1353.81 1566.23 Q1350.66 1567.57 1347.35 1568.27 Q1344.04 1568.97 1340.63 1568.97 Q1332.1 1568.97 1327.11 1564 Q1322.14 1559.04 1322.14 1550.57 Q1322.14 1541.82 1326.85 1536.69 Q1331.59 1531.54 1339.61 1531.54 Q1346.81 1531.54 1350.98 1536.18 Q1355.18 1540.8 1355.18 1548.76 M1349.32 1547.04 Q1349.26 1542.23 1346.62 1539.37 Q1344.01 1536.5 1339.68 1536.5 Q1334.78 1536.5 1331.82 1539.27 Q1328.89 1542.04 1328.44 1547.07 L1349.32 1547.04 Z" fill="#000000" fill-rule="nonzero" fill-opacity="1" /><path clip-path="url(#clip440)" d="M1391.3 1522.27 L1391.3 1532.4 L1403.37 1532.4 L1403.37 1536.95 L1391.3 1536.95 L1391.3 1556.3 Q1391.3 1560.66 1392.48 1561.9 Q1393.69 1563.14 1397.35 1563.14 L1403.37 1563.14 L1403.37 1568.04 L1397.35 1568.04 Q1390.57 1568.04 1387.99 1565.53 Q1385.42 1562.98 1385.42 1556.3 L1385.42 1536.95 L1381.12 1536.95 L1381.12 1532.4 L1385.42 1532.4 L1385.42 1522.27 L1391.3 1522.27 Z" fill="#000000" fill-rule="nonzero" fill-opacity="1" /><polyline clip-path="url(#clip442)" style="stroke:#000000; stroke-linecap:round; stroke-linejoin:round; stroke-width:2; stroke-opacity:0.1; fill:none" points="249.542,1223.91 2352.76,1223.91 "/>
<polyline clip-path="url(#clip442)" style="stroke:#000000; stroke-linecap:round; stroke-linejoin:round; stroke-width:2; stroke-opacity:0.1; fill:none" points="249.542,957.998 2352.76,957.998 "/>
<polyline clip-path="url(#clip442)" style="stroke:#000000; stroke-linecap:round; stroke-linejoin:round; stroke-width:2; stroke-opacity:0.1; fill:none" points="249.542,692.084 2352.76,692.084 "/>
<polyline clip-path="url(#clip442)" style="stroke:#000000; stroke-linecap:round; stroke-linejoin:round; stroke-width:2; stroke-opacity:0.1; fill:none" points="249.542,426.17 2352.76,426.17 "/>
<polyline clip-path="url(#clip442)" style="stroke:#000000; stroke-linecap:round; stroke-linejoin:round; stroke-width:2; stroke-opacity:0.1; fill:none" points="249.542,160.256 2352.76,160.256 "/>
<polyline clip-path="url(#clip440)" style="stroke:#000000; stroke-linecap:round; stroke-linejoin:round; stroke-width:4; stroke-opacity:1; fill:none" points="249.542,1423.18 249.542,123.472 "/>
<polyline clip-path="url(#clip440)" style="stroke:#000000; stroke-linecap:round; stroke-linejoin:round; stroke-width:4; stroke-opacity:1; fill:none" points="249.542,1223.91 268.44,1223.91 "/>
<polyline clip-path="url(#clip440)" style="stroke:#000000; stroke-linecap:round; stroke-linejoin:round; stroke-width:4; stroke-opacity:1; fill:none" points="249.542,957.998 268.44,957.998 "/>
<polyline clip-path="url(#clip440)" style="stroke:#000000; stroke-linecap:round; stroke-linejoin:round; stroke-width:4; stroke-opacity:1; fill:none" points="249.542,692.084 268.44,692.084 "/>
<polyline clip-path="url(#clip440)" style="stroke:#000000; stroke-linecap:round; stroke-linejoin:round; stroke-width:4; stroke-opacity:1; fill:none" points="249.542,426.17 268.44,426.17 "/>
<polyline clip-path="url(#clip440)" style="stroke:#000000; stroke-linecap:round; stroke-linejoin:round; stroke-width:4; stroke-opacity:1; fill:none" points="249.542,160.256 268.44,160.256 "/>
<path clip-path="url(#clip440)" d="M126.205 1209.71 Q122.593 1209.71 120.765 1213.27 Q118.959 1216.82 118.959 1223.95 Q118.959 1231.05 120.765 1234.62 Q122.593 1238.16 126.205 1238.16 Q129.839 1238.16 131.644 1234.62 Q133.473 1231.05 133.473 1223.95 Q133.473 1216.82 131.644 1213.27 Q129.839 1209.71 126.205 1209.71 M126.205 1206.01 Q132.015 1206.01 135.07 1210.61 Q138.149 1215.2 138.149 1223.95 Q138.149 1232.67 135.07 1237.28 Q132.015 1241.86 126.205 1241.86 Q120.394 1241.86 117.316 1237.28 Q114.26 1232.67 114.26 1223.95 Q114.26 1215.2 117.316 1210.61 Q120.394 1206.01 126.205 1206.01 Z" fill="#000000" fill-rule="nonzero" fill-opacity="1" /><path clip-path="url(#clip440)" d="M146.366 1235.31 L151.251 1235.31 L151.251 1241.19 L146.366 1241.19 L146.366 1235.31 Z" fill="#000000" fill-rule="nonzero" fill-opacity="1" /><path clip-path="url(#clip440)" d="M171.436 1224.78 Q168.102 1224.78 166.181 1226.56 Q164.283 1228.34 164.283 1231.47 Q164.283 1234.59 166.181 1236.38 Q168.102 1238.16 171.436 1238.16 Q174.769 1238.16 176.69 1236.38 Q178.612 1234.57 178.612 1231.47 Q178.612 1228.34 176.69 1226.56 Q174.792 1224.78 171.436 1224.78 M166.76 1222.79 Q163.751 1222.05 162.061 1219.99 Q160.394 1217.93 160.394 1214.96 Q160.394 1210.82 163.334 1208.41 Q166.297 1206.01 171.436 1206.01 Q176.598 1206.01 179.538 1208.41 Q182.477 1210.82 182.477 1214.96 Q182.477 1217.93 180.788 1219.99 Q179.121 1222.05 176.135 1222.79 Q179.514 1223.58 181.389 1225.87 Q183.288 1228.16 183.288 1231.47 Q183.288 1236.49 180.209 1239.18 Q177.153 1241.86 171.436 1241.86 Q165.718 1241.86 162.64 1239.18 Q159.584 1236.49 159.584 1231.47 Q159.584 1228.16 161.482 1225.87 Q163.38 1223.58 166.76 1222.79 M165.047 1215.4 Q165.047 1218.09 166.714 1219.59 Q168.403 1221.1 171.436 1221.1 Q174.445 1221.1 176.135 1219.59 Q177.848 1218.09 177.848 1215.4 Q177.848 1212.72 176.135 1211.21 Q174.445 1209.71 171.436 1209.71 Q168.403 1209.71 166.714 1211.21 Q165.047 1212.72 165.047 1215.4 Z" fill="#000000" fill-rule="nonzero" fill-opacity="1" /><path clip-path="url(#clip440)" d="M201.598 1209.71 Q197.987 1209.71 196.158 1213.27 Q194.352 1216.82 194.352 1223.95 Q194.352 1231.05 196.158 1234.62 Q197.987 1238.16 201.598 1238.16 Q205.232 1238.16 207.037 1234.62 Q208.866 1231.05 208.866 1223.95 Q208.866 1216.82 207.037 1213.27 Q205.232 1209.71 201.598 1209.71 M201.598 1206.01 Q207.408 1206.01 210.463 1210.61 Q213.542 1215.2 213.542 1223.95 Q213.542 1232.67 210.463 1237.28 Q207.408 1241.86 201.598 1241.86 Q195.787 1241.86 192.709 1237.28 Q189.653 1232.67 189.653 1223.95 Q189.653 1215.2 192.709 1210.61 Q195.787 1206.01 201.598 1206.01 Z" fill="#000000" fill-rule="nonzero" fill-opacity="1" /><path clip-path="url(#clip440)" d="M127.2 943.796 Q123.589 943.796 121.76 947.361 Q119.955 950.903 119.955 958.032 Q119.955 965.139 121.76 968.704 Q123.589 972.245 127.2 972.245 Q130.834 972.245 132.64 968.704 Q134.468 965.139 134.468 958.032 Q134.468 950.903 132.64 947.361 Q130.834 943.796 127.2 943.796 M127.2 940.093 Q133.01 940.093 136.066 944.699 Q139.144 949.282 139.144 958.032 Q139.144 966.759 136.066 971.366 Q133.01 975.949 127.2 975.949 Q121.39 975.949 118.311 971.366 Q115.256 966.759 115.256 958.032 Q115.256 949.282 118.311 944.699 Q121.39 940.093 127.2 940.093 Z" fill="#000000" fill-rule="nonzero" fill-opacity="1" /><path clip-path="url(#clip440)" d="M147.362 969.398 L152.246 969.398 L152.246 975.278 L147.362 975.278 L147.362 969.398 Z" fill="#000000" fill-rule="nonzero" fill-opacity="1" /><path clip-path="url(#clip440)" d="M172.431 958.866 Q169.098 958.866 167.177 960.648 Q165.278 962.431 165.278 965.556 Q165.278 968.681 167.177 970.463 Q169.098 972.245 172.431 972.245 Q175.764 972.245 177.686 970.463 Q179.607 968.657 179.607 965.556 Q179.607 962.431 177.686 960.648 Q175.788 958.866 172.431 958.866 M167.755 956.875 Q164.746 956.134 163.056 954.074 Q161.39 952.014 161.39 949.051 Q161.39 944.908 164.329 942.5 Q167.292 940.093 172.431 940.093 Q177.593 940.093 180.533 942.5 Q183.473 944.908 183.473 949.051 Q183.473 952.014 181.783 954.074 Q180.116 956.134 177.13 956.875 Q180.51 957.662 182.385 959.954 Q184.283 962.245 184.283 965.556 Q184.283 970.579 181.204 973.264 Q178.149 975.949 172.431 975.949 Q166.714 975.949 163.635 973.264 Q160.579 970.579 160.579 965.556 Q160.579 962.245 162.477 959.954 Q164.376 957.662 167.755 956.875 M166.042 949.491 Q166.042 952.176 167.709 953.681 Q169.399 955.185 172.431 955.185 Q175.44 955.185 177.13 953.681 Q178.843 952.176 178.843 949.491 Q178.843 946.806 177.13 945.301 Q175.44 943.796 172.431 943.796 Q169.399 943.796 167.709 945.301 Q166.042 946.806 166.042 949.491 Z" fill="#000000" fill-rule="nonzero" fill-opacity="1" /><path clip-path="url(#clip440)" d="M192.639 940.718 L210.996 940.718 L210.996 944.653 L196.922 944.653 L196.922 953.125 Q197.94 952.778 198.959 952.616 Q199.977 952.431 200.996 952.431 Q206.783 952.431 210.162 955.602 Q213.542 958.773 213.542 964.19 Q213.542 969.768 210.07 972.87 Q206.598 975.949 200.278 975.949 Q198.102 975.949 195.834 975.579 Q193.588 975.208 191.181 974.468 L191.181 969.768 Q193.264 970.903 195.487 971.458 Q197.709 972.014 200.186 972.014 Q204.19 972.014 206.528 969.907 Q208.866 967.801 208.866 964.19 Q208.866 960.579 206.528 958.472 Q204.19 956.366 200.186 956.366 Q198.311 956.366 196.436 956.782 Q194.584 957.199 192.639 958.079 L192.639 940.718 Z" fill="#000000" fill-rule="nonzero" fill-opacity="1" /><path clip-path="url(#clip440)" d="M126.205 677.883 Q122.593 677.883 120.765 681.447 Q118.959 684.989 118.959 692.119 Q118.959 699.225 120.765 702.79 Q122.593 706.332 126.205 706.332 Q129.839 706.332 131.644 702.79 Q133.473 699.225 133.473 692.119 Q133.473 684.989 131.644 681.447 Q129.839 677.883 126.205 677.883 M126.205 674.179 Q132.015 674.179 135.07 678.785 Q138.149 683.369 138.149 692.119 Q138.149 700.845 135.07 705.452 Q132.015 710.035 126.205 710.035 Q120.394 710.035 117.316 705.452 Q114.26 700.845 114.26 692.119 Q114.26 683.369 117.316 678.785 Q120.394 674.179 126.205 674.179 Z" fill="#000000" fill-rule="nonzero" fill-opacity="1" /><path clip-path="url(#clip440)" d="M146.366 703.484 L151.251 703.484 L151.251 709.364 L146.366 709.364 L146.366 703.484 Z" fill="#000000" fill-rule="nonzero" fill-opacity="1" /><path clip-path="url(#clip440)" d="M161.575 708.646 L161.575 704.387 Q163.334 705.22 165.14 705.66 Q166.945 706.1 168.681 706.1 Q173.311 706.1 175.741 702.998 Q178.195 699.873 178.542 693.531 Q177.2 695.521 175.139 696.586 Q173.079 697.651 170.579 697.651 Q165.394 697.651 162.362 694.526 Q159.353 691.378 159.353 685.938 Q159.353 680.614 162.501 677.396 Q165.649 674.179 170.88 674.179 Q176.876 674.179 180.024 678.785 Q183.195 683.369 183.195 692.119 Q183.195 700.29 179.306 705.174 Q175.44 710.035 168.889 710.035 Q167.13 710.035 165.325 709.688 Q163.519 709.341 161.575 708.646 M170.88 693.994 Q174.028 693.994 175.857 691.841 Q177.709 689.688 177.709 685.938 Q177.709 682.211 175.857 680.059 Q174.028 677.883 170.88 677.883 Q167.732 677.883 165.88 680.059 Q164.052 682.211 164.052 685.938 Q164.052 689.688 165.88 691.841 Q167.732 693.994 170.88 693.994 Z" fill="#000000" fill-rule="nonzero" fill-opacity="1" /><path clip-path="url(#clip440)" d="M201.598 677.883 Q197.987 677.883 196.158 681.447 Q194.352 684.989 194.352 692.119 Q194.352 699.225 196.158 702.79 Q197.987 706.332 201.598 706.332 Q205.232 706.332 207.037 702.79 Q208.866 699.225 208.866 692.119 Q208.866 684.989 207.037 681.447 Q205.232 677.883 201.598 677.883 M201.598 674.179 Q207.408 674.179 210.463 678.785 Q213.542 683.369 213.542 692.119 Q213.542 700.845 210.463 705.452 Q207.408 710.035 201.598 710.035 Q195.787 710.035 192.709 705.452 Q189.653 700.845 189.653 692.119 Q189.653 683.369 192.709 678.785 Q195.787 674.179 201.598 674.179 Z" fill="#000000" fill-rule="nonzero" fill-opacity="1" /><path clip-path="url(#clip440)" d="M127.2 411.969 Q123.589 411.969 121.76 415.534 Q119.955 419.075 119.955 426.205 Q119.955 433.311 121.76 436.876 Q123.589 440.418 127.2 440.418 Q130.834 440.418 132.64 436.876 Q134.468 433.311 134.468 426.205 Q134.468 419.075 132.64 415.534 Q130.834 411.969 127.2 411.969 M127.2 408.265 Q133.01 408.265 136.066 412.872 Q139.144 417.455 139.144 426.205 Q139.144 434.932 136.066 439.538 Q133.01 444.121 127.2 444.121 Q121.39 444.121 118.311 439.538 Q115.256 434.932 115.256 426.205 Q115.256 417.455 118.311 412.872 Q121.39 408.265 127.2 408.265 Z" fill="#000000" fill-rule="nonzero" fill-opacity="1" /><path clip-path="url(#clip440)" d="M147.362 437.571 L152.246 437.571 L152.246 443.45 L147.362 443.45 L147.362 437.571 Z" fill="#000000" fill-rule="nonzero" fill-opacity="1" /><path clip-path="url(#clip440)" d="M162.57 442.733 L162.57 438.473 Q164.329 439.307 166.135 439.746 Q167.94 440.186 169.677 440.186 Q174.306 440.186 176.737 437.084 Q179.19 433.959 179.538 427.617 Q178.195 429.608 176.135 430.672 Q174.075 431.737 171.575 431.737 Q166.39 431.737 163.357 428.612 Q160.348 425.464 160.348 420.024 Q160.348 414.7 163.496 411.483 Q166.644 408.265 171.876 408.265 Q177.871 408.265 181.019 412.872 Q184.19 417.455 184.19 426.205 Q184.19 434.376 180.301 439.26 Q176.436 444.121 169.885 444.121 Q168.126 444.121 166.32 443.774 Q164.515 443.427 162.57 442.733 M171.876 428.08 Q175.024 428.08 176.852 425.927 Q178.704 423.774 178.704 420.024 Q178.704 416.297 176.852 414.145 Q175.024 411.969 171.876 411.969 Q168.727 411.969 166.876 414.145 Q165.047 416.297 165.047 420.024 Q165.047 423.774 166.876 425.927 Q168.727 428.08 171.876 428.08 Z" fill="#000000" fill-rule="nonzero" fill-opacity="1" /><path clip-path="url(#clip440)" d="M192.639 408.89 L210.996 408.89 L210.996 412.825 L196.922 412.825 L196.922 421.297 Q197.94 420.95 198.959 420.788 Q199.977 420.603 200.996 420.603 Q206.783 420.603 210.162 423.774 Q213.542 426.946 213.542 432.362 Q213.542 437.941 210.07 441.043 Q206.598 444.121 200.278 444.121 Q198.102 444.121 195.834 443.751 Q193.588 443.381 191.181 442.64 L191.181 437.941 Q193.264 439.075 195.487 439.631 Q197.709 440.186 200.186 440.186 Q204.19 440.186 206.528 438.08 Q208.866 435.973 208.866 432.362 Q208.866 428.751 206.528 426.645 Q204.19 424.538 200.186 424.538 Q198.311 424.538 196.436 424.955 Q194.584 425.372 192.639 426.251 L192.639 408.89 Z" fill="#000000" fill-rule="nonzero" fill-opacity="1" /><path clip-path="url(#clip440)" d="M117.015 173.601 L124.654 173.601 L124.654 147.236 L116.343 148.902 L116.343 144.643 L124.607 142.976 L129.283 142.976 L129.283 173.601 L136.922 173.601 L136.922 177.536 L117.015 177.536 L117.015 173.601 Z" fill="#000000" fill-rule="nonzero" fill-opacity="1" /><path clip-path="url(#clip440)" d="M146.366 171.657 L151.251 171.657 L151.251 177.536 L146.366 177.536 L146.366 171.657 Z" fill="#000000" fill-rule="nonzero" fill-opacity="1" /><path clip-path="url(#clip440)" d="M171.436 146.055 Q167.825 146.055 165.996 149.62 Q164.19 153.161 164.19 160.291 Q164.19 167.397 165.996 170.962 Q167.825 174.504 171.436 174.504 Q175.07 174.504 176.876 170.962 Q178.704 167.397 178.704 160.291 Q178.704 153.161 176.876 149.62 Q175.07 146.055 171.436 146.055 M171.436 142.351 Q177.246 142.351 180.301 146.958 Q183.38 151.541 183.38 160.291 Q183.38 169.018 180.301 173.624 Q177.246 178.208 171.436 178.208 Q165.626 178.208 162.547 173.624 Q159.491 169.018 159.491 160.291 Q159.491 151.541 162.547 146.958 Q165.626 142.351 171.436 142.351 Z" fill="#000000" fill-rule="nonzero" fill-opacity="1" /><path clip-path="url(#clip440)" d="M201.598 146.055 Q197.987 146.055 196.158 149.62 Q194.352 153.161 194.352 160.291 Q194.352 167.397 196.158 170.962 Q197.987 174.504 201.598 174.504 Q205.232 174.504 207.037 170.962 Q208.866 167.397 208.866 160.291 Q208.866 153.161 207.037 149.62 Q205.232 146.055 201.598 146.055 M201.598 142.351 Q207.408 142.351 210.463 146.958 Q213.542 151.541 213.542 160.291 Q213.542 169.018 210.463 173.624 Q207.408 178.208 201.598 178.208 Q195.787 178.208 192.709 173.624 Q189.653 169.018 189.653 160.291 Q189.653 151.541 192.709 146.958 Q195.787 142.351 201.598 142.351 Z" fill="#000000" fill-rule="nonzero" fill-opacity="1" /><path clip-path="url(#clip440)" d="M16.4842 979.527 L16.4842 949.481 L21.895 949.481 L21.895 973.098 L35.9632 973.098 L35.9632 950.468 L41.3741 950.468 L41.3741 973.098 L58.5933 973.098 L58.5933 948.908 L64.0042 948.908 L64.0042 979.527 L16.4842 979.527 Z" fill="#000000" fill-rule="nonzero" fill-opacity="1" /><path clip-path="url(#clip440)" d="M46.212 935.095 Q52.6732 935.095 56.3653 932.453 Q60.0256 929.779 60.0256 925.132 Q60.0256 920.485 56.3653 917.812 Q52.6732 915.138 46.212 915.138 Q39.7508 915.138 36.0905 917.812 Q32.3984 920.485 32.3984 925.132 Q32.3984 929.779 36.0905 932.453 Q39.7508 935.095 46.212 935.095 M58.657 915.138 Q61.8398 916.984 63.3994 919.817 Q64.9272 922.618 64.9272 926.564 Q64.9272 933.026 59.771 937.1 Q54.6147 941.142 46.212 941.142 Q37.8093 941.142 32.6531 937.1 Q27.4968 933.026 27.4968 926.564 Q27.4968 922.618 29.0564 919.817 Q30.5842 916.984 33.7671 915.138 L28.3562 915.138 L28.3562 909.282 L77.5631 909.282 L77.5631 915.138 L58.657 915.138 Z" fill="#000000" fill-rule="nonzero" fill-opacity="1" /><path clip-path="url(#clip440)" d="M49.9359 897.823 L28.3562 897.823 L28.3562 891.967 L49.7131 891.967 Q54.7739 891.967 57.3202 889.993 Q59.8346 888.02 59.8346 884.073 Q59.8346 879.331 56.8109 876.594 Q53.7872 873.825 48.5673 873.825 L28.3562 873.825 L28.3562 867.968 L64.0042 867.968 L64.0042 873.825 L58.5296 873.825 Q61.7762 875.957 63.3676 878.79 Q64.9272 881.591 64.9272 885.315 Q64.9272 891.458 61.1078 894.64 Q57.2883 897.823 49.9359 897.823 M27.4968 883.087 L27.4968 883.087 Z" fill="#000000" fill-rule="nonzero" fill-opacity="1" /><path clip-path="url(#clip440)" d="M46.0847 839.704 Q46.0847 846.802 47.7079 849.539 Q49.3312 852.277 53.2461 852.277 Q56.3653 852.277 58.2114 850.24 Q60.0256 848.171 60.0256 844.638 Q60.0256 839.768 56.5881 836.84 Q53.1188 833.88 47.3897 833.88 L46.0847 833.88 L46.0847 839.704 M43.6657 828.023 L64.0042 828.023 L64.0042 833.88 L58.5933 833.88 Q61.8398 835.885 63.3994 838.877 Q64.9272 841.869 64.9272 846.197 Q64.9272 851.672 61.8716 854.918 Q58.7843 858.133 53.6281 858.133 Q47.6125 858.133 44.5569 854.123 Q41.5014 850.08 41.5014 842.092 L41.5014 833.88 L40.9285 833.88 Q36.8862 833.88 34.6901 836.553 Q32.4621 839.195 32.4621 844.001 Q32.4621 847.057 33.1941 849.953 Q33.9262 852.85 35.3903 855.523 L29.9795 855.523 Q28.7381 852.308 28.1334 849.285 Q27.4968 846.261 27.4968 843.396 Q27.4968 835.662 31.5072 831.843 Q35.5176 828.023 43.6657 828.023 Z" fill="#000000" fill-rule="nonzero" fill-opacity="1" /><path clip-path="url(#clip440)" d="M18.2347 810.168 L28.3562 810.168 L28.3562 798.104 L32.9077 798.104 L32.9077 810.168 L52.2594 810.168 Q56.6199 810.168 57.8613 808.99 Q59.1026 807.78 59.1026 804.12 L59.1026 798.104 L64.0042 798.104 L64.0042 804.12 Q64.0042 810.9 61.4897 813.478 Q58.9434 816.056 52.2594 816.056 L32.9077 816.056 L32.9077 820.353 L28.3562 820.353 L28.3562 816.056 L18.2347 816.056 L18.2347 810.168 Z" fill="#000000" fill-rule="nonzero" fill-opacity="1" /><path clip-path="url(#clip440)" d="M28.3562 790.402 L28.3562 784.546 L64.0042 784.546 L64.0042 790.402 L28.3562 790.402 M14.479 790.402 L14.479 784.546 L21.895 784.546 L21.895 790.402 L14.479 790.402 Z" fill="#000000" fill-rule="nonzero" fill-opacity="1" /><path clip-path="url(#clip440)" d="M32.4621 758.478 Q32.4621 763.189 36.1542 765.926 Q39.8145 768.663 46.212 768.663 Q52.6095 768.663 56.3017 765.958 Q59.9619 763.22 59.9619 758.478 Q59.9619 753.799 56.2698 751.062 Q52.5777 748.325 46.212 748.325 Q39.8781 748.325 36.186 751.062 Q32.4621 753.799 32.4621 758.478 M27.4968 758.478 Q27.4968 750.839 32.4621 746.479 Q37.4273 742.118 46.212 742.118 Q54.9649 742.118 59.9619 746.479 Q64.9272 750.839 64.9272 758.478 Q64.9272 766.149 59.9619 770.509 Q54.9649 774.838 46.212 774.838 Q37.4273 774.838 32.4621 770.509 Q27.4968 766.149 27.4968 758.478 Z" fill="#000000" fill-rule="nonzero" fill-opacity="1" /><path clip-path="url(#clip440)" d="M42.4881 702.778 L64.0042 702.778 L64.0042 708.634 L42.679 708.634 Q37.6183 708.634 35.1038 710.608 Q32.5894 712.581 32.5894 716.528 Q32.5894 721.27 35.6131 724.008 Q38.6368 726.745 43.8567 726.745 L64.0042 726.745 L64.0042 732.633 L28.3562 732.633 L28.3562 726.745 L33.8944 726.745 Q30.6797 724.644 29.0883 721.812 Q27.4968 718.947 27.4968 715.223 Q27.4968 709.08 31.3163 705.929 Q35.1038 702.778 42.4881 702.778 Z" fill="#000000" fill-rule="nonzero" fill-opacity="1" /><path clip-path="url(#clip440)" d="M67.3143 655.544 Q73.68 658.027 75.6216 660.382 Q77.5631 662.738 77.5631 666.684 L77.5631 671.363 L72.6615 671.363 L72.6615 667.926 Q72.6615 665.507 71.5157 664.17 Q70.3699 662.833 66.1048 661.21 L63.4312 660.16 L28.3562 674.578 L28.3562 668.371 L56.238 657.231 L28.3562 646.091 L28.3562 639.885 L67.3143 655.544 Z" fill="#000000" fill-rule="nonzero" fill-opacity="1" /><path clip-path="url(#clip440)" d="M14.5426 617.732 Q21.8632 621.997 29.0246 624.066 Q36.186 626.135 43.5384 626.135 Q50.8908 626.135 58.1159 624.066 Q65.3091 621.965 72.5979 617.732 L72.5979 622.825 Q65.1182 627.599 57.8931 629.986 Q50.668 632.341 43.5384 632.341 Q36.4406 632.341 29.2474 629.986 Q22.0542 627.631 14.5426 622.825 L14.5426 617.732 Z" fill="#000000" fill-rule="nonzero" fill-opacity="1" /><path clip-path="url(#clip440)" d="M18.2347 600.577 L28.3562 600.577 L28.3562 588.514 L32.9077 588.514 L32.9077 600.577 L52.2594 600.577 Q56.6199 600.577 57.8613 599.399 Q59.1026 598.189 59.1026 594.529 L59.1026 588.514 L64.0042 588.514 L64.0042 594.529 Q64.0042 601.309 61.4897 603.887 Q58.9434 606.465 52.2594 606.465 L32.9077 606.465 L32.9077 610.762 L28.3562 610.762 L28.3562 606.465 L18.2347 606.465 L18.2347 600.577 Z" fill="#000000" fill-rule="nonzero" fill-opacity="1" /><path clip-path="url(#clip440)" d="M14.5426 581.734 L14.5426 576.642 Q22.0542 571.867 29.2474 569.512 Q36.4406 567.125 43.5384 567.125 Q50.668 567.125 57.8931 569.512 Q65.1182 571.867 72.5979 576.642 L72.5979 581.734 Q65.3091 577.501 58.1159 575.432 Q50.8908 573.331 43.5384 573.331 Q36.186 573.331 29.0246 575.432 Q21.8632 577.501 14.5426 581.734 Z" fill="#000000" fill-rule="nonzero" fill-opacity="1" /><path clip-path="url(#clip440)" d="M1086.09 12.096 L1124.33 12.096 L1124.33 18.9825 L1094.27 18.9825 L1094.27 36.8875 L1123.07 36.8875 L1123.07 43.7741 L1094.27 43.7741 L1094.27 65.6895 L1125.06 65.6895 L1125.06 72.576 L1086.09 72.576 L1086.09 12.096 Z" fill="#000000" fill-rule="nonzero" fill-opacity="1" /><path clip-path="url(#clip440)" d="M1142.64 49.9314 Q1142.64 58.1548 1146 62.8538 Q1149.4 67.5124 1155.32 67.5124 Q1161.23 67.5124 1164.63 62.8538 Q1168.04 58.1548 1168.04 49.9314 Q1168.04 41.7081 1164.63 37.0496 Q1161.23 32.3505 1155.32 32.3505 Q1149.4 32.3505 1146 37.0496 Q1142.64 41.7081 1142.64 49.9314 M1168.04 65.7705 Q1165.69 69.8214 1162.08 71.8063 Q1158.52 73.7508 1153.49 73.7508 Q1145.27 73.7508 1140.09 67.1883 Q1134.94 60.6258 1134.94 49.9314 Q1134.94 39.2371 1140.09 32.6746 Q1145.27 26.1121 1153.49 26.1121 Q1158.52 26.1121 1162.08 28.0971 Q1165.69 30.0415 1168.04 34.0924 L1168.04 27.2059 L1175.49 27.2059 L1175.49 89.8329 L1168.04 89.8329 L1168.04 65.7705 Z" fill="#000000" fill-rule="nonzero" fill-opacity="1" /><path clip-path="url(#clip440)" d="M1190.07 54.671 L1190.07 27.2059 L1197.53 27.2059 L1197.53 54.3874 Q1197.53 60.8284 1200.04 64.0691 Q1202.55 67.2693 1207.57 67.2693 Q1213.61 67.2693 1217.09 63.421 Q1220.62 59.5726 1220.62 52.9291 L1220.62 27.2059 L1228.07 27.2059 L1228.07 72.576 L1220.62 72.576 L1220.62 65.6084 Q1217.9 69.7404 1214.3 71.7658 Q1210.73 73.7508 1205.99 73.7508 Q1198.17 73.7508 1194.12 68.8897 Q1190.07 64.0286 1190.07 54.671 M1208.83 26.1121 L1208.83 26.1121 Z" fill="#000000" fill-rule="nonzero" fill-opacity="1" /><path clip-path="url(#clip440)" d="M1264.04 49.7694 Q1255.01 49.7694 1251.53 51.8354 Q1248.04 53.9013 1248.04 58.8839 Q1248.04 62.8538 1250.63 65.2034 Q1253.27 67.5124 1257.76 67.5124 Q1263.96 67.5124 1267.69 63.1374 Q1271.46 58.7219 1271.46 51.4303 L1271.46 49.7694 L1264.04 49.7694 M1278.91 46.6907 L1278.91 72.576 L1271.46 72.576 L1271.46 65.6895 Q1268.9 69.8214 1265.1 71.8063 Q1261.29 73.7508 1255.78 73.7508 Q1248.81 73.7508 1244.68 69.8619 Q1240.59 65.9325 1240.59 59.3701 Q1240.59 51.7138 1245.69 47.825 Q1250.84 43.9361 1261 43.9361 L1271.46 43.9361 L1271.46 43.2069 Q1271.46 38.0623 1268.05 35.2672 Q1264.69 32.4315 1258.57 32.4315 Q1254.69 32.4315 1251 33.3632 Q1247.31 34.295 1243.91 36.1584 L1243.91 29.2718 Q1248 27.692 1251.85 26.9223 Q1255.7 26.1121 1259.34 26.1121 Q1269.19 26.1121 1274.05 31.2163 Q1278.91 36.3204 1278.91 46.6907 Z" fill="#000000" fill-rule="nonzero" fill-opacity="1" /><path clip-path="url(#clip440)" d="M1301.64 14.324 L1301.64 27.2059 L1316.99 27.2059 L1316.99 32.9987 L1301.64 32.9987 L1301.64 57.6282 Q1301.64 63.1779 1303.13 64.7578 Q1304.67 66.3376 1309.33 66.3376 L1316.99 66.3376 L1316.99 72.576 L1309.33 72.576 Q1300.7 72.576 1297.42 69.3758 Q1294.14 66.1351 1294.14 57.6282 L1294.14 32.9987 L1288.67 32.9987 L1288.67 27.2059 L1294.14 27.2059 L1294.14 14.324 L1301.64 14.324 Z" fill="#000000" fill-rule="nonzero" fill-opacity="1" /><path clip-path="url(#clip440)" d="M1326.79 27.2059 L1334.24 27.2059 L1334.24 72.576 L1326.79 72.576 L1326.79 27.2059 M1326.79 9.54393 L1334.24 9.54393 L1334.24 18.9825 L1326.79 18.9825 L1326.79 9.54393 Z" fill="#000000" fill-rule="nonzero" fill-opacity="1" /><path clip-path="url(#clip440)" d="M1367.42 32.4315 Q1361.43 32.4315 1357.94 37.1306 Q1354.46 41.7891 1354.46 49.9314 Q1354.46 58.0738 1357.9 62.7728 Q1361.39 67.4314 1367.42 67.4314 Q1373.38 67.4314 1376.86 62.7323 Q1380.34 58.0333 1380.34 49.9314 Q1380.34 41.8701 1376.86 37.1711 Q1373.38 32.4315 1367.42 32.4315 M1367.42 26.1121 Q1377.14 26.1121 1382.69 32.4315 Q1388.24 38.7509 1388.24 49.9314 Q1388.24 61.0714 1382.69 67.4314 Q1377.14 73.7508 1367.42 73.7508 Q1357.66 73.7508 1352.11 67.4314 Q1346.6 61.0714 1346.6 49.9314 Q1346.6 38.7509 1352.11 32.4315 Q1357.66 26.1121 1367.42 26.1121 Z" fill="#000000" fill-rule="nonzero" fill-opacity="1" /><path clip-path="url(#clip440)" d="M1438.31 45.1919 L1438.31 72.576 L1430.86 72.576 L1430.86 45.4349 Q1430.86 38.994 1428.35 35.7938 Q1425.84 32.5936 1420.81 32.5936 Q1414.78 32.5936 1411.29 36.4419 Q1407.81 40.2903 1407.81 46.9338 L1407.81 72.576 L1400.32 72.576 L1400.32 27.2059 L1407.81 27.2059 L1407.81 34.2544 Q1410.48 30.163 1414.09 28.1376 Q1417.73 26.1121 1422.47 26.1121 Q1430.29 26.1121 1434.3 30.9732 Q1438.31 35.7938 1438.31 45.1919 Z" fill="#000000" fill-rule="nonzero" fill-opacity="1" /><path clip-path="url(#clip440)" d="M1487.65 65.6895 L1516.21 65.6895 L1516.21 72.576 L1477.81 72.576 L1477.81 65.6895 Q1482.47 60.8689 1490.49 52.7671 Q1498.55 44.6248 1500.62 42.2752 Q1504.54 37.8598 1506.08 34.8216 Q1507.66 31.7429 1507.66 28.7857 Q1507.66 23.9651 1504.26 20.927 Q1500.9 17.8888 1495.47 17.8888 Q1491.62 17.8888 1487.33 19.2256 Q1483.08 20.5624 1478.21 23.2765 L1478.21 15.0127 Q1483.16 13.0277 1487.45 12.015 Q1491.74 11.0023 1495.31 11.0023 Q1504.71 11.0023 1510.3 15.7013 Q1515.89 20.4004 1515.89 28.2591 Q1515.89 31.9859 1514.47 35.3482 Q1513.09 38.6699 1509.41 43.2069 Q1508.39 44.3817 1502.97 50.0125 Q1497.54 55.6027 1487.65 65.6895 Z" fill="#000000" fill-rule="nonzero" fill-opacity="1" /><path clip-path="url(#clip442)" d="M309.067 1386.4 L311.547 1386.4 L314.027 1386.4 L316.508 1386.4 L318.988 1386.4 L321.468 1386.4 L323.948 1386.4 L326.428 1386.4 L328.909 1386.4 L331.389 1386.4 L333.869 1386.4 L336.349 1386.4 L338.829 1386.4 L341.31 1386.4 L343.79 1386.4 L346.27 1386.4 L348.75 1386.4 L351.23 1386.4 L353.711 1386.4 L356.191 1386.4 L358.671 1386.4 L361.151 1386.4 L363.631 1386.4 L366.112 1386.4 L368.592 1386.4 L371.072 1386.4 L373.552 1386.4 L376.032 1386.4 L378.513 1386.4 L380.993 1386.4 L383.473 1386.4 L385.953 1386.4 L388.434 1386.4 L390.914 1386.4 L393.394 1386.4 L395.874 1386.4 L398.354 1386.4 L400.835 1386.4 L403.315 1386.4 L405.795 1386.4 L408.275 1386.4 L410.755 1386.4 L413.236 1386.4 L415.716 1386.4 L418.196 1386.4 L420.676 1386.4 L423.156 1386.4 L425.637 1386.4 L428.117 1386.4 L430.597 1386.4 L433.077 1386.4 L435.557 1386.4 L438.038 1386.4 L440.518 1386.4 L442.998 1386.4 L445.478 1386.4 L447.958 1386.4 L450.439 1386.4 L452.919 1386.4 L455.399 1386.4 L457.879 1386.4 L460.359 1386.4 L462.84 1386.4 L465.32 1386.4 L467.8 1386.4 L470.28 1386.4 L472.76 1386.4 L475.241 1386.4 L477.721 1386.4 L480.201 1386.4 L482.681 1386.4 L485.162 1386.4 L487.642 1386.4 L490.122 1386.4 L492.602 1386.4 L495.082 1386.4 L497.563 1386.4 L500.043 1386.4 L502.523 1386.4 L505.003 1386.4 L507.483 1386.4 L509.964 1386.4 L512.444 1386.4 L514.924 1386.4 L517.404 1386.4 L519.884 1386.4 L522.365 1386.4 L524.845 1386.4 L527.325 1386.4 L529.805 1386.4 L532.285 1386.4 L534.766 1386.4 L537.246 1386.4 L539.726 1386.4 L542.206 1386.4 L544.686 1386.4 L547.167 1386.4 L549.647 1386.4 L552.127 1386.4 L554.607 1386.4 L557.087 1386.4 L559.568 1386.4 L562.048 1386.4 L564.528 1386.4 L567.008 1386.4 L569.488 1386.4 L571.969 1386.4 L574.449 1386.4 L576.929 1386.4 L579.409 1386.4 L581.89 1386.4 L584.37 1386.4 L586.85 1386.4 L589.33 1386.4 L591.81 1386.4 L594.291 1386.4 L596.771 1386.4 L599.251 1386.4 L601.731 1386.4 L604.211 1386.4 L606.692 1386.4 L609.172 1386.4 L611.652 1386.4 L614.132 1386.4 L616.612 1386.4 L619.093 1386.4 L621.573 1386.4 L624.053 1386.4 L626.533 1386.4 L629.013 1386.4 L631.494 1386.4 L633.974 1386.4 L636.454 1386.4 L638.934 1386.4 L641.414 1386.4 L643.895 1386.4 L646.375 1386.4 L648.855 1386.4 L651.335 1386.4 L653.815 1386.4 L656.296 1386.4 L658.776 1386.4 L661.256 1386.4 L663.736 1386.4 L666.216 1386.4 L668.697 1386.4 L671.177 1386.4 L673.657 1386.4 L676.137 1386.4 L678.618 1386.4 L681.098 1386.4 L683.578 1386.4 L686.058 1386.4 L688.538 1386.4 L691.019 1386.4 L693.499 1386.4 L695.979 1386.4 L698.459 1386.4 L700.939 1386.4 L703.42 1386.4 L705.9 1386.4 L708.38 1386.4 L710.86 1386.4 L713.34 1386.4 L715.821 1386.4 L718.301 1386.4 L720.781 1386.4 L723.261 1386.4 L725.741 1386.4 L728.222 1386.4 L730.702 1386.4 L733.182 1386.4 L735.662 1386.4 L738.142 1386.4 L740.623 1386.4 L743.103 1386.4 L745.583 1386.4 L748.063 1386.4 L750.543 1386.4 L753.024 1386.4 L755.504 1386.4 L757.984 1386.4 L760.464 1386.4 L762.944 1386.4 L765.425 1386.4 L767.905 1386.4 L770.385 1386.4 L772.865 1386.4 L775.346 1386.4 L777.826 1386.4 L780.306 1386.4 L782.786 1386.4 L785.266 1386.4 L787.747 1386.4 L790.227 1386.4 L792.707 1386.4 L795.187 1386.4 L797.667 1386.4 L800.148 1386.4 L802.628 1386.4 L805.108 1386.4 L807.588 1386.4 L810.068 1386.4 L812.549 1386.4 L815.029 1386.4 L817.509 1386.4 L819.989 1386.4 L822.469 1386.4 L824.95 1386.4 L827.43 1386.4 L829.91 1386.4 L832.39 1386.4 L834.87 1386.4 L837.351 1386.4 L839.831 1386.4 L842.311 1386.4 L844.791 1386.4 L847.271 1386.4 L849.752 1386.4 L852.232 1386.4 L854.712 1386.4 L857.192 1386.4 L859.672 1386.4 L862.153 1386.4 L864.633 1386.4 L867.113 1386.4 L869.593 1386.4 L872.073 1386.4 L874.554 1386.4 L877.034 1386.4 L879.514 1386.4 L881.994 1386.4 L884.475 1386.4 L886.955 1386.4 L889.435 1386.4 L891.915 1386.4 L894.395 1386.4 L896.876 1386.4 L899.356 1386.4 L901.836 1386.4 L904.316 1386.4 L906.796 1386.4 L909.277 1386.4 L911.757 1386.4 L914.237 1386.4 L916.717 1386.4 L919.197 1386.4 L921.678 1386.4 L924.158 1386.4 L926.638 1386.4 L929.118 1386.4 L931.598 1386.4 L934.079 1386.4 L936.559 1386.4 L939.039 1386.4 L941.519 1386.4 L943.999 1386.4 L946.48 1386.4 L948.96 1386.4 L951.44 1386.4 L953.92 1386.4 L956.4 1386.4 L958.881 1386.4 L961.361 1386.4 L963.841 1386.4 L966.321 1386.4 L968.801 1386.4 L971.282 1386.4 L973.762 1386.4 L976.242 1386.4 L978.722 1386.4 L981.203 1386.4 L983.683 1386.4 L986.163 1386.4 L988.643 1386.4 L991.123 1386.4 L993.604 1386.4 L996.084 1386.4 L998.564 1386.4 L1001.04 1386.4 L1003.52 1386.4 L1006 1386.4 L1008.48 1386.4 L1010.96 1386.4 L1013.45 1386.4 L1015.93 1386.4 L1018.41 1386.4 L1020.89 1386.4 L1023.37 1386.4 L1025.85 1386.4 L1028.33 1386.4 L1030.81 1386.4 L1033.29 1386.4 L1035.77 1386.4 L1038.25 1386.4 L1040.73 1386.4 L1043.21 1386.4 L1045.69 1386.4 L1048.17 1386.4 L1050.65 1386.4 L1053.13 1386.4 L1055.61 1386.4 L1058.09 1386.4 L1060.57 1386.4 L1063.05 1386.4 L1065.53 1386.4 L1068.01 1386.4 L1070.49 1386.4 L1072.97 1386.4 L1075.45 1386.4 L1077.93 1386.4 L1080.41 1386.4 L1082.89 1386.4 L1085.37 1386.4 L1087.85 1386.4 L1090.33 1386.4 L1092.81 1386.4 L1095.29 1386.4 L1097.77 1386.4 L1100.25 1386.4 L1102.73 1386.4 L1105.21 1386.4 L1107.69 1386.4 L1110.17 1386.4 L1112.65 1386.4 L1115.13 1386.4 L1117.61 1386.4 L1120.09 1386.4 L1122.57 1386.4 L1125.05 1386.4 L1127.53 1386.4 L1130.01 1386.4 L1132.5 1386.4 L1134.98 1386.4 L1137.46 1386.4 L1139.94 1386.4 L1142.42 1386.4 L1144.9 1386.4 L1147.38 1386.4 L1149.86 1386.4 L1152.34 1386.4 L1154.82 1386.4 L1157.3 1386.4 L1159.78 1386.4 L1162.26 1386.4 L1164.74 1386.4 L1167.22 1386.4 L1169.7 1386.4 L1172.18 1386.4 L1174.66 1386.4 L1177.14 1386.4 L1179.62 1386.4 L1182.1 1386.4 L1184.58 1386.4 L1187.06 1386.4 L1189.54 1386.4 L1192.02 1386.4 L1194.5 1386.4 L1196.98 1386.4 L1199.46 1386.4 L1201.94 1386.4 L1204.42 1386.4 L1206.9 1386.4 L1209.38 1386.4 L1211.86 1386.4 L1214.34 1386.4 L1216.82 1386.4 L1219.3 1386.4 L1221.78 1386.4 L1224.26 1386.4 L1226.74 1386.4 L1229.22 1386.4 L1231.7 1386.4 L1234.18 1386.4 L1236.66 1386.4 L1239.14 1386.4 L1241.62 1386.4 L1244.1 1386.4 L1246.58 1386.4 L1249.06 1386.4 L1251.54 1386.4 L1254.03 1386.4 L1256.51 1386.4 L1258.99 1386.4 L1261.47 1386.4 L1263.95 1386.4 L1266.43 1386.4 L1268.91 1386.4 L1271.39 1386.4 L1273.87 1386.4 L1276.35 1386.4 L1278.83 1386.4 L1281.31 1386.4 L1283.79 1386.4 L1286.27 1386.4 L1288.75 1386.4 L1291.23 1386.4 L1293.71 1386.4 L1296.19 1386.4 L1298.67 1386.4 L1301.15 1386.4 L1303.63 1386.4 L1306.11 1386.4 L1308.59 1386.4 L1311.07 1386.4 L1313.55 1386.4 L1316.03 1386.4 L1318.51 1386.4 L1320.99 1386.4 L1323.47 1386.4 L1325.95 1386.4 L1328.43 1386.4 L1330.91 1386.4 L1333.39 1386.4 L1335.87 1386.4 L1338.35 1386.4 L1340.83 1386.4 L1343.31 1386.4 L1345.79 1386.4 L1348.27 1386.4 L1350.75 1386.4 L1353.23 1386.4 L1355.71 1386.4 L1358.19 1386.4 L1360.67 1386.4 L1363.15 1386.4 L1365.63 1386.4 L1368.11 1386.4 L1370.59 1386.4 L1373.07 1386.4 L1375.56 1386.4 L1378.04 1386.4 L1380.52 1386.4 L1383 1386.4 L1385.48 1386.4 L1387.96 1386.4 L1390.44 1386.4 L1392.92 1386.4 L1395.4 1386.4 L1397.88 1386.4 L1400.36 1386.4 L1402.84 1386.4 L1405.32 1386.4 L1407.8 1386.4 L1410.28 1386.4 L1412.76 1386.4 L1415.24 1386.4 L1417.72 1386.4 L1420.2 1386.4 L1422.68 1386.4 L1425.16 1386.4 L1427.64 1386.4 L1430.12 1386.4 L1432.6 1386.4 L1435.08 1386.4 L1437.56 1386.4 L1440.04 1386.4 L1442.52 1386.4 L1445 1386.4 L1447.48 1386.4 L1449.96 1386.4 L1452.44 1386.4 L1454.92 1386.4 L1457.4 1386.4 L1459.88 1386.4 L1462.36 1386.4 L1464.84 1386.4 L1467.32 1386.4 L1469.8 1386.4 L1472.28 1386.4 L1474.76 1386.4 L1477.24 1386.4 L1479.72 1386.4 L1482.2 1386.4 L1484.68 1386.4 L1487.16 1386.4 L1489.64 1386.4 L1492.12 1386.4 L1494.6 1386.4 L1497.09 1386.4 L1499.57 1386.4 L1502.05 1386.4 L1504.53 1386.4 L1507.01 1386.4 L1509.49 1386.4 L1511.97 1386.4 L1514.45 1386.4 L1516.93 1386.4 L1519.41 1386.4 L1521.89 1386.4 L1524.37 1386.4 L1526.85 1386.4 L1529.33 1386.4 L1531.81 1386.4 L1534.29 1386.4 L1536.77 1386.4 L1539.25 1386.4 L1541.73 1386.4 L1544.21 1386.4 L1546.69 1386.4 L1549.17 1386.4 L1551.65 1386.4 L1554.13 1386.4 L1556.61 1386.4 L1559.09 1386.4 L1561.57 1386.4 L1564.05 1386.4 L1566.53 1386.4 L1569.01 1386.4 L1571.49 1386.4 L1573.97 1386.4 L1576.45 1386.4 L1578.93 1386.4 L1581.41 1386.4 L1583.89 1386.4 L1586.37 1386.4 L1588.85 1386.4 L1591.33 1386.4 L1593.81 1386.4 L1596.29 1386.4 L1598.77 1386.4 L1601.25 1386.4 L1603.73 1386.4 L1606.21 1386.4 L1608.69 1386.4 L1611.17 1386.4 L1613.65 1386.4 L1616.14 1386.4 L1618.62 1386.4 L1621.1 1386.4 L1623.58 1386.4 L1626.06 1386.4 L1628.54 1386.4 L1631.02 1386.4 L1633.5 1386.4 L1635.98 1386.4 L1638.46 1386.4 L1640.94 1386.4 L1643.42 1386.4 L1645.9 1386.4 L1648.38 1386.4 L1650.86 1386.4 L1653.34 1386.4 L1655.82 1386.4 L1658.3 1386.4 L1660.78 1386.4 L1663.26 1386.4 L1665.74 1386.4 L1668.22 1386.4 L1670.7 1386.4 L1673.18 1386.4 L1675.66 1386.4 L1678.14 1386.4 L1680.62 1386.4 L1683.1 1386.4 L1685.58 1386.4 L1688.06 1386.4 L1690.54 1386.4 L1693.02 1386.4 L1695.5 1386.4 L1697.98 1386.4 L1700.46 1386.4 L1702.94 1386.4 L1705.42 1386.4 L1707.9 1386.4 L1710.38 1386.4 L1712.86 1386.4 L1715.34 1386.4 L1717.82 1386.4 L1720.3 1386.4 L1722.78 1386.4 L1725.26 1386.4 L1727.74 1386.4 L1730.22 1386.4 L1732.7 1386.4 L1735.18 1386.4 L1737.67 1386.4 L1740.15 1386.4 L1742.63 1386.4 L1745.11 1386.4 L1747.59 1386.4 L1750.07 1386.4 L1752.55 1386.4 L1755.03 1386.4 L1757.51 1386.4 L1759.99 1386.4 L1762.47 1386.4 L1764.95 1386.4 L1767.43 1386.4 L1769.91 1386.4 L1772.39 1386.4 L1774.87 1386.4 L1777.35 1386.4 L1779.83 1386.4 L1782.31 1386.4 L1784.79 1386.4 L1787.27 1386.4 L1789.75 1386.4 L1792.23 1386.4 L1794.71 1386.4 L1797.19 1386.4 L1799.67 1386.4 L1802.15 1386.4 L1804.63 1386.4 L1807.11 1386.4 L1809.59 1386.4 L1812.07 1386.4 L1814.55 1386.4 L1817.03 1386.4 L1819.51 1386.4 L1821.99 1386.4 L1824.47 1386.4 L1826.95 1386.4 L1829.43 1386.4 L1831.91 1386.4 L1834.39 1386.4 L1836.87 1386.4 L1839.35 1386.4 L1841.83 1386.4 L1844.31 1386.4 L1846.79 1386.4 L1849.27 1386.4 L1851.75 1386.4 L1854.23 1386.4 L1856.71 1386.4 L1859.2 1386.4 L1861.68 1386.4 L1864.16 1386.4 L1866.64 1386.4 L1869.12 1386.4 L1871.6 1386.4 L1874.08 1386.4 L1876.56 1386.4 L1879.04 1386.4 L1881.52 1386.4 L1884 1386.4 L1886.48 1386.4 L1888.96 1386.4 L1891.44 1386.4 L1893.92 1386.4 L1896.4 1386.4 L1898.88 1386.4 L1901.36 1386.4 L1903.84 1386.4 L1906.32 1386.4 L1908.8 1386.4 L1911.28 1386.4 L1913.76 1386.4 L1916.24 1386.4 L1918.72 1386.4 L1921.2 1386.4 L1923.68 1386.4 L1926.16 1386.4 L1928.64 1386.4 L1931.12 1386.4 L1933.6 1386.4 L1936.08 1386.4 L1938.56 1386.4 L1941.04 1386.4 L1943.52 1386.4 L1946 1386.4 L1948.48 1386.4 L1950.96 1386.4 L1953.44 1386.4 L1955.92 1386.4 L1958.4 1386.4 L1960.88 1386.4 L1963.36 1386.4 L1965.84 1386.4 L1968.32 1386.4 L1970.8 1386.4 L1973.28 1386.4 L1975.76 1386.4 L1978.24 1386.4 L1980.73 1386.4 L1983.21 1386.4 L1985.69 1386.4 L1988.17 1386.4 L1990.65 1386.4 L1993.13 1386.4 L1995.61 1386.4 L1998.09 1386.4 L2000.57 1386.4 L2003.05 1386.4 L2005.53 1386.4 L2008.01 1386.4 L2010.49 1386.4 L2012.97 1386.4 L2015.45 1386.4 L2017.93 1386.4 L2020.41 1386.4 L2022.89 1386.4 L2025.37 1386.4 L2027.85 1386.4 L2030.33 1386.4 L2032.81 1386.4 L2035.29 1386.4 L2037.77 1386.4 L2040.25 1386.4 L2042.73 1386.4 L2045.21 1386.4 L2047.69 1386.4 L2050.17 1386.4 L2052.65 1386.4 L2055.13 1386.4 L2057.61 1386.4 L2060.09 1386.4 L2062.57 1386.4 L2065.05 1386.4 L2067.53 1386.4 L2070.01 1386.4 L2072.49 1386.4 L2074.97 1386.4 L2077.45 1386.4 L2079.93 1386.4 L2082.41 1386.4 L2084.89 1386.4 L2087.37 1386.4 L2089.85 1386.4 L2092.33 1386.4 L2094.81 1386.4 L2097.29 1386.4 L2099.77 1386.4 L2102.26 1386.4 L2104.74 1386.4 L2107.22 1386.4 L2109.7 1386.4 L2112.18 1386.4 L2114.66 1386.4 L2117.14 1386.4 L2119.62 1386.4 L2122.1 1386.4 L2124.58 1386.4 L2127.06 1386.4 L2129.54 1386.4 L2132.02 1386.4 L2134.5 1386.4 L2136.98 1386.4 L2139.46 1386.4 L2141.94 1386.4 L2144.42 1386.4 L2146.9 1386.4 L2149.38 1386.4 L2151.86 1386.4 L2154.34 1386.4 L2156.82 1386.4 L2159.3 1386.4 L2161.78 1386.4 L2164.26 1386.4 L2166.74 1386.4 L2169.22 1386.4 L2171.7 1386.4 L2174.18 1386.4 L2176.66 1386.4 L2179.14 1386.4 L2181.62 1386.4 L2184.1 1386.4 L2186.58 1386.4 L2189.06 1386.4 L2191.54 1386.4 L2194.02 1386.4 L2196.5 1386.4 L2198.98 1386.4 L2201.46 1386.4 L2203.94 1386.4 L2206.42 1386.4 L2208.9 1386.4 L2211.38 1386.4 L2213.86 1386.4 L2216.34 1386.4 L2218.82 1386.4 L2221.31 1386.4 L2223.79 1386.4 L2226.27 1386.4 L2228.75 1386.4 L2231.23 1386.4 L2233.71 1386.4 L2236.19 1386.4 L2238.67 1386.4 L2241.15 1386.4 L2243.63 1386.4 L2246.11 1386.4 L2248.59 1386.4 L2251.07 1386.4 L2253.55 1386.4 L2256.03 1386.4 L2258.51 1386.4 L2260.99 1386.4 L2263.47 1386.4 L2265.95 1386.4 L2268.43 1386.4 L2270.91 1386.4 L2273.39 1386.4 L2275.87 1386.4 L2278.35 1386.4 L2280.83 1386.4 L2283.31 1386.4 L2285.79 1386.4 L2288.27 1386.4 L2290.75 1386.4 L2293.23 1386.4 L2293.23 209.115 L2290.75 209.115 L2288.27 209.115 L2285.79 209.115 L2283.31 209.115 L2280.83 209.115 L2278.35 209.115 L2275.87 209.115 L2273.39 209.115 L2270.91 209.115 L2268.43 209.115 L2265.95 209.115 L2263.47 209.115 L2260.99 209.115 L2258.51 209.115 L2256.03 209.115 L2253.55 209.115 L2251.07 209.115 L2248.59 209.115 L2246.11 209.115 L2243.63 209.115 L2241.15 209.115 L2238.67 209.115 L2236.19 209.115 L2233.71 209.115 L2231.23 209.115 L2228.75 209.115 L2226.27 209.115 L2223.79 209.115 L2221.31 209.115 L2218.82 209.115 L2216.34 209.115 L2213.86 209.115 L2211.38 209.115 L2208.9 209.115 L2206.42 209.115 L2203.94 209.115 L2201.46 209.115 L2198.98 209.115 L2196.5 209.115 L2194.02 209.115 L2191.54 209.115 L2189.06 209.115 L2186.58 209.115 L2184.1 209.115 L2181.62 209.115 L2179.14 209.115 L2176.66 209.115 L2174.18 209.115 L2171.7 209.115 L2169.22 209.115 L2166.74 209.115 L2164.26 209.115 L2161.78 209.115 L2159.3 209.115 L2156.82 209.115 L2154.34 209.115 L2151.86 209.115 L2149.38 209.115 L2146.9 209.115 L2144.42 209.115 L2141.94 209.115 L2139.46 209.115 L2136.98 209.115 L2134.5 209.115 L2132.02 209.115 L2129.54 209.115 L2127.06 209.115 L2124.58 209.115 L2122.1 209.115 L2119.62 209.115 L2117.14 209.115 L2114.66 209.115 L2112.18 209.115 L2109.7 209.115 L2107.22 209.115 L2104.74 209.115 L2102.26 209.115 L2099.77 209.115 L2097.29 209.115 L2094.81 209.115 L2092.33 209.115 L2089.85 209.115 L2087.37 209.115 L2084.89 209.115 L2082.41 209.115 L2079.93 209.115 L2077.45 209.115 L2074.97 209.115 L2072.49 209.115 L2070.01 209.115 L2067.53 209.115 L2065.05 209.115 L2062.57 209.115 L2060.09 209.115 L2057.61 209.115 L2055.13 209.115 L2052.65 209.115 L2050.17 209.115 L2047.69 209.115 L2045.21 209.115 L2042.73 209.115 L2040.25 209.115 L2037.77 209.115 L2035.29 209.115 L2032.81 209.115 L2030.33 209.115 L2027.85 209.115 L2025.37 209.115 L2022.89 209.115 L2020.41 209.115 L2017.93 209.115 L2015.45 209.115 L2012.97 209.115 L2010.49 209.115 L2008.01 209.115 L2005.53 209.115 L2003.05 209.115 L2000.57 209.115 L1998.09 209.115 L1995.61 209.115 L1993.13 209.115 L1990.65 209.115 L1988.17 209.115 L1985.69 209.115 L1983.21 209.115 L1980.73 209.115 L1978.24 209.115 L1975.76 209.115 L1973.28 209.115 L1970.8 209.115 L1968.32 209.115 L1965.84 209.115 L1963.36 209.115 L1960.88 209.115 L1958.4 209.115 L1955.92 209.115 L1953.44 209.115 L1950.96 209.115 L1948.48 209.115 L1946 209.115 L1943.52 209.115 L1941.04 209.115 L1938.56 209.115 L1936.08 209.115 L1933.6 209.115 L1931.12 209.115 L1928.64 209.115 L1926.16 209.115 L1923.68 209.115 L1921.2 209.115 L1918.72 209.115 L1916.24 209.115 L1913.76 209.115 L1911.28 209.115 L1908.8 209.115 L1906.32 209.115 L1903.84 209.115 L1901.36 209.115 L1898.88 209.115 L1896.4 209.115 L1893.92 209.115 L1891.44 209.115 L1888.96 209.115 L1886.48 209.115 L1884 209.115 L1881.52 209.115 L1879.04 209.115 L1876.56 209.115 L1874.08 209.115 L1871.6 209.115 L1869.12 209.115 L1866.64 209.115 L1864.16 209.115 L1861.68 209.115 L1859.2 209.115 L1856.71 209.115 L1854.23 209.115 L1851.75 209.115 L1849.27 209.115 L1846.79 209.115 L1844.31 209.115 L1841.83 209.115 L1839.35 209.115 L1836.87 209.115 L1834.39 209.115 L1831.91 209.115 L1829.43 209.115 L1826.95 209.115 L1824.47 209.115 L1821.99 209.115 L1819.51 209.115 L1817.03 209.115 L1814.55 209.115 L1812.07 209.115 L1809.59 209.115 L1807.11 209.115 L1804.63 209.115 L1802.15 209.115 L1799.67 209.115 L1797.19 209.115 L1794.71 209.115 L1792.23 209.115 L1789.75 209.115 L1787.27 209.115 L1784.79 209.115 L1782.31 209.115 L1779.83 209.115 L1777.35 209.115 L1774.87 209.115 L1772.39 209.115 L1769.91 209.115 L1767.43 209.115 L1764.95 209.115 L1762.47 209.115 L1759.99 209.115 L1757.51 209.115 L1755.03 209.115 L1752.55 209.115 L1750.07 209.115 L1747.59 209.115 L1745.11 209.115 L1742.63 209.115 L1740.15 209.115 L1737.67 209.115 L1735.18 209.115 L1732.7 209.115 L1730.22 209.115 L1727.74 209.115 L1725.26 209.115 L1722.78 209.115 L1720.3 209.115 L1717.82 209.115 L1715.34 209.115 L1712.86 209.115 L1710.38 209.115 L1707.9 209.115 L1705.42 209.115 L1702.94 209.115 L1700.46 209.115 L1697.98 209.115 L1695.5 209.115 L1693.02 209.115 L1690.54 209.115 L1688.06 209.115 L1685.58 209.115 L1683.1 209.115 L1680.62 209.115 L1678.14 209.115 L1675.66 209.115 L1673.18 209.115 L1670.7 209.115 L1668.22 209.115 L1665.74 209.115 L1663.26 209.115 L1660.78 209.115 L1658.3 209.115 L1655.82 209.115 L1653.34 209.115 L1650.86 209.115 L1648.38 209.115 L1645.9 209.115 L1643.42 209.115 L1640.94 209.115 L1638.46 209.115 L1635.98 209.115 L1633.5 209.115 L1631.02 209.115 L1628.54 209.115 L1626.06 209.115 L1623.58 209.115 L1621.1 209.115 L1618.62 209.115 L1616.14 209.115 L1613.65 209.115 L1611.17 209.115 L1608.69 209.115 L1606.21 209.115 L1603.73 209.115 L1601.25 209.115 L1598.77 209.115 L1596.29 209.115 L1593.81 209.115 L1591.33 209.115 L1588.85 209.115 L1586.37 209.115 L1583.89 209.115 L1581.41 209.115 L1578.93 209.115 L1576.45 209.115 L1573.97 209.115 L1571.49 209.115 L1569.01 209.115 L1566.53 209.115 L1564.05 209.115 L1561.57 209.115 L1559.09 209.115 L1556.61 209.115 L1554.13 209.115 L1551.65 209.115 L1549.17 209.115 L1546.69 209.115 L1544.21 209.115 L1541.73 209.115 L1539.25 209.115 L1536.77 209.115 L1534.29 209.115 L1531.81 209.115 L1529.33 209.115 L1526.85 209.115 L1524.37 209.115 L1521.89 209.115 L1519.41 209.115 L1516.93 209.115 L1514.45 209.115 L1511.97 209.115 L1509.49 209.115 L1507.01 209.115 L1504.53 209.115 L1502.05 209.115 L1499.57 209.115 L1497.09 209.115 L1494.6 209.115 L1492.12 209.115 L1489.64 209.115 L1487.16 209.115 L1484.68 209.115 L1482.2 209.115 L1479.72 209.115 L1477.24 209.115 L1474.76 209.115 L1472.28 209.115 L1469.8 209.115 L1467.32 209.115 L1464.84 209.115 L1462.36 209.115 L1459.88 209.115 L1457.4 209.115 L1454.92 209.115 L1452.44 209.115 L1449.96 209.115 L1447.48 209.115 L1445 209.115 L1442.52 209.115 L1440.04 209.115 L1437.56 209.115 L1435.08 209.115 L1432.6 209.115 L1430.12 209.115 L1427.64 209.115 L1425.16 209.115 L1422.68 209.115 L1420.2 209.115 L1417.72 209.115 L1415.24 209.115 L1412.76 209.115 L1410.28 209.115 L1407.8 209.115 L1405.32 209.115 L1402.84 209.115 L1400.36 209.115 L1397.88 209.115 L1395.4 209.115 L1392.92 209.115 L1390.44 209.115 L1387.96 209.115 L1385.48 209.115 L1383 209.115 L1380.52 209.115 L1378.04 209.115 L1375.56 209.115 L1373.07 209.115 L1370.59 209.115 L1368.11 209.115 L1365.63 209.115 L1363.15 209.115 L1360.67 209.115 L1358.19 209.115 L1355.71 209.115 L1353.23 209.115 L1350.75 209.115 L1348.27 209.115 L1345.79 209.115 L1343.31 209.115 L1340.83 209.115 L1338.35 209.115 L1335.87 209.115 L1333.39 209.115 L1330.91 209.115 L1328.43 209.115 L1325.95 209.115 L1323.47 209.115 L1320.99 209.115 L1318.51 209.115 L1316.03 209.115 L1313.55 209.115 L1311.07 209.115 L1308.59 209.115 L1306.11 209.115 L1303.63 209.115 L1301.15 209.115 L1298.67 209.115 L1296.19 209.115 L1293.71 209.115 L1291.23 209.115 L1288.75 209.115 L1286.27 209.115 L1283.79 209.115 L1281.31 209.115 L1278.83 209.115 L1276.35 209.115 L1273.87 209.115 L1271.39 209.115 L1268.91 209.115 L1266.43 209.115 L1263.95 209.115 L1261.47 209.115 L1258.99 209.115 L1256.51 209.115 L1254.03 209.115 L1251.54 209.115 L1249.06 209.115 L1246.58 209.115 L1244.1 209.115 L1241.62 209.115 L1239.14 209.115 L1236.66 209.115 L1234.18 209.115 L1231.7 209.115 L1229.22 209.115 L1226.74 209.115 L1224.26 209.115 L1221.78 209.115 L1219.3 209.115 L1216.82 209.115 L1214.34 209.115 L1211.86 209.115 L1209.38 209.115 L1206.9 209.115 L1204.42 209.115 L1201.94 209.115 L1199.46 209.115 L1196.98 209.115 L1194.5 209.115 L1192.02 209.115 L1189.54 209.115 L1187.06 209.115 L1184.58 209.115 L1182.1 209.115 L1179.62 209.115 L1177.14 209.115 L1174.66 209.115 L1172.18 209.115 L1169.7 209.115 L1167.22 209.115 L1164.74 209.115 L1162.26 209.115 L1159.78 209.115 L1157.3 209.115 L1154.82 209.115 L1152.34 209.115 L1149.86 209.115 L1147.38 209.115 L1144.9 209.115 L1142.42 209.115 L1139.94 209.115 L1137.46 209.115 L1134.98 209.115 L1132.5 209.115 L1130.01 209.115 L1127.53 209.115 L1125.05 209.115 L1122.57 209.115 L1120.09 209.115 L1117.61 209.115 L1115.13 209.115 L1112.65 209.115 L1110.17 209.115 L1107.69 209.115 L1105.21 209.115 L1102.73 209.115 L1100.25 209.115 L1097.77 209.115 L1095.29 209.115 L1092.81 209.115 L1090.33 209.115 L1087.85 209.115 L1085.37 209.115 L1082.89 209.115 L1080.41 209.115 L1077.93 209.115 L1075.45 209.115 L1072.97 209.115 L1070.49 209.115 L1068.01 209.115 L1065.53 209.115 L1063.05 209.115 L1060.57 209.115 L1058.09 209.115 L1055.61 209.115 L1053.13 209.115 L1050.65 209.115 L1048.17 209.115 L1045.69 209.115 L1043.21 209.115 L1040.73 209.115 L1038.25 209.115 L1035.77 209.115 L1033.29 209.115 L1030.81 209.115 L1028.33 209.115 L1025.85 209.115 L1023.37 209.115 L1020.89 209.115 L1018.41 209.115 L1015.93 209.115 L1013.45 209.115 L1010.96 209.115 L1008.48 209.115 L1006 209.115 L1003.52 209.115 L1001.04 209.115 L998.564 209.115 L996.084 209.115 L993.604 209.115 L991.123 209.115 L988.643 209.115 L986.163 209.115 L983.683 209.115 L981.203 209.115 L978.722 209.115 L976.242 209.115 L973.762 209.115 L971.282 209.115 L968.801 209.115 L966.321 209.115 L963.841 209.115 L961.361 209.115 L958.881 209.115 L956.4 209.115 L953.92 209.115 L951.44 209.115 L948.96 209.115 L946.48 209.115 L943.999 209.115 L941.519 209.115 L939.039 209.115 L936.559 209.115 L934.079 209.115 L931.598 209.115 L929.118 209.115 L926.638 209.115 L924.158 209.115 L921.678 209.115 L919.197 209.115 L916.717 209.115 L914.237 209.115 L911.757 209.115 L909.277 209.115 L906.796 209.115 L904.316 209.115 L901.836 209.115 L899.356 209.115 L896.876 209.115 L894.395 209.115 L891.915 209.115 L889.435 209.115 L886.955 209.115 L884.475 209.115 L881.994 209.115 L879.514 209.115 L877.034 209.115 L874.554 209.115 L872.073 209.115 L869.593 209.115 L867.113 209.115 L864.633 209.115 L862.153 209.115 L859.672 209.115 L857.192 209.115 L854.712 209.115 L852.232 209.115 L849.752 209.115 L847.271 209.115 L844.791 209.115 L842.311 209.115 L839.831 209.115 L837.351 209.115 L834.87 209.115 L832.39 209.115 L829.91 209.115 L827.43 209.115 L824.95 209.115 L822.469 209.115 L819.989 209.115 L817.509 209.115 L815.029 209.115 L812.549 209.115 L810.068 209.115 L807.588 209.115 L805.108 209.115 L802.628 209.115 L800.148 209.115 L797.667 209.115 L795.187 209.115 L792.707 209.115 L790.227 209.115 L787.747 209.115 L785.266 209.115 L782.786 209.115 L780.306 209.115 L777.826 209.115 L775.346 209.115 L772.865 209.115 L770.385 209.115 L767.905 209.115 L765.425 209.115 L762.944 209.115 L760.464 209.115 L757.984 209.115 L755.504 209.115 L753.024 209.115 L750.543 209.115 L748.063 209.115 L745.583 209.115 L743.103 209.115 L740.623 209.115 L738.142 209.115 L735.662 209.115 L733.182 209.115 L730.702 209.115 L728.222 209.115 L725.741 209.115 L723.261 209.115 L720.781 209.115 L718.301 209.115 L715.821 209.115 L713.34 209.115 L710.86 209.115 L708.38 209.115 L705.9 209.115 L703.42 209.115 L700.939 209.115 L698.459 209.115 L695.979 209.115 L693.499 209.115 L691.019 209.115 L688.538 209.115 L686.058 209.115 L683.578 209.115 L681.098 209.115 L678.618 209.115 L676.137 209.115 L673.657 209.115 L671.177 209.115 L668.697 209.115 L666.216 209.115 L663.736 209.115 L661.256 209.115 L658.776 209.115 L656.296 209.115 L653.815 209.115 L651.335 209.115 L648.855 209.115 L646.375 209.115 L643.895 209.115 L641.414 209.115 L638.934 209.115 L636.454 209.115 L633.974 209.115 L631.494 209.115 L629.013 209.115 L626.533 209.115 L624.053 209.115 L621.573 209.115 L619.093 209.115 L616.612 209.115 L614.132 209.115 L611.652 209.115 L609.172 209.115 L606.692 209.115 L604.211 209.115 L601.731 209.115 L599.251 209.115 L596.771 209.115 L594.291 209.115 L591.81 209.115 L589.33 209.115 L586.85 209.115 L584.37 209.115 L581.89 209.115 L579.409 209.115 L576.929 209.115 L574.449 209.115 L571.969 209.115 L569.488 209.115 L567.008 209.115 L564.528 209.115 L562.048 209.115 L559.568 209.115 L557.087 209.115 L554.607 209.115 L552.127 209.115 L549.647 209.115 L547.167 209.115 L544.686 209.115 L542.206 209.115 L539.726 209.115 L537.246 209.115 L534.766 209.115 L532.285 209.115 L529.805 209.115 L527.325 209.115 L524.845 209.115 L522.365 209.115 L519.884 209.115 L517.404 209.115 L514.924 209.115 L512.444 209.115 L509.964 209.115 L507.483 209.115 L505.003 209.115 L502.523 209.115 L500.043 209.115 L497.563 209.115 L495.082 209.115 L492.602 209.115 L490.122 209.115 L487.642 209.115 L485.162 209.115 L482.681 209.115 L480.201 209.115 L477.721 209.115 L475.241 209.115 L472.76 209.115 L470.28 209.115 L467.8 209.115 L465.32 209.115 L462.84 209.115 L460.359 209.115 L457.879 209.115 L455.399 209.115 L452.919 209.115 L450.439 209.115 L447.958 209.115 L445.478 209.115 L442.998 209.115 L440.518 209.115 L438.038 209.115 L435.557 209.115 L433.077 209.115 L430.597 209.115 L428.117 209.115 L425.637 209.115 L423.156 209.115 L420.676 209.115 L418.196 209.115 L415.716 209.115 L413.236 209.115 L410.755 209.115 L408.275 209.115 L405.795 209.115 L403.315 209.115 L400.835 209.115 L398.354 209.115 L395.874 209.115 L393.394 209.115 L390.914 209.115 L388.434 209.115 L385.953 209.115 L383.473 209.115 L380.993 209.115 L378.513 209.115 L376.032 209.115 L373.552 209.115 L371.072 209.115 L368.592 209.115 L366.112 209.115 L363.631 209.115 L361.151 209.115 L358.671 209.115 L356.191 209.115 L353.711 209.115 L351.23 209.115 L348.75 209.115 L346.27 209.115 L343.79 209.115 L341.31 209.115 L338.829 209.115 L336.349 209.115 L333.869 209.115 L331.389 209.115 L328.909 209.115 L326.428 209.115 L323.948 209.115 L321.468 209.115 L318.988 209.115 L316.508 209.115 L314.027 209.115 L311.547 209.115 L309.067 209.115  Z" fill="#56b4e9" fill-rule="evenodd" fill-opacity="0.15"/>
<polyline clip-path="url(#clip442)" style="stroke:#56b4e9; stroke-linecap:round; stroke-linejoin:round; stroke-width:4; stroke-opacity:1; fill:none" points="309.067,681.052 311.547,681.052 314.027,681.052 316.508,681.052 318.988,681.052 321.468,681.052 323.948,681.052 326.428,681.052 328.909,681.052 331.389,681.052 333.869,681.052 336.349,681.052 338.829,681.052 341.31,681.052 343.79,681.052 346.27,681.052 348.75,681.052 351.23,681.052 353.711,681.052 356.191,681.052 358.671,681.052 361.151,681.052 363.631,681.052 366.112,681.052 368.592,681.052 371.072,681.052 373.552,681.052 376.032,681.052 378.513,681.052 380.993,681.052 383.473,681.052 385.953,681.052 388.434,681.052 390.914,681.052 393.394,681.052 395.874,681.052 398.354,681.052 400.835,681.052 403.315,681.052 405.795,681.052 408.275,681.052 410.755,681.052 413.236,681.052 415.716,681.052 418.196,681.052 420.676,681.052 423.156,681.052 425.637,681.052 428.117,681.052 430.597,681.052 433.077,681.052 435.557,681.052 438.038,681.052 440.518,681.052 442.998,681.052 445.478,681.052 447.958,681.052 450.439,681.052 452.919,681.052 455.399,681.052 457.879,681.052 460.359,681.052 462.84,681.052 465.32,681.052 467.8,681.052 470.28,681.052 472.76,681.052 475.241,681.052 477.721,681.052 480.201,681.052 482.681,681.052 485.162,681.052 487.642,681.052 490.122,681.052 492.602,681.052 495.082,681.052 497.563,681.052 500.043,681.052 502.523,681.052 505.003,681.052 507.483,681.052 509.964,681.052 512.444,681.052 514.924,681.052 517.404,681.052 519.884,681.052 522.365,681.052 524.845,681.052 527.325,681.052 529.805,681.052 532.285,681.052 534.766,681.052 537.246,681.052 539.726,681.052 542.206,681.052 544.686,681.052 547.167,681.052 549.647,681.052 552.127,681.052 554.607,681.052 557.087,681.052 559.568,681.052 562.048,681.052 564.528,681.052 567.008,681.052 569.488,681.052 571.969,681.052 574.449,681.052 576.929,681.052 579.409,681.052 581.89,681.052 584.37,681.052 586.85,681.052 589.33,681.052 591.81,681.052 594.291,681.052 596.771,681.052 599.251,681.052 601.731,681.052 604.211,681.052 606.692,681.052 609.172,681.052 611.652,681.052 614.132,681.052 616.612,681.052 619.093,681.052 621.573,681.052 624.053,681.052 626.533,681.052 629.013,681.052 631.494,681.052 633.974,681.052 636.454,681.052 638.934,681.052 641.414,681.052 643.895,681.052 646.375,681.052 648.855,681.052 651.335,681.052 653.815,681.052 656.296,681.052 658.776,681.052 661.256,681.052 663.736,681.052 666.216,681.052 668.697,681.052 671.177,681.052 673.657,681.052 676.137,681.052 678.618,681.052 681.098,681.052 683.578,681.052 686.058,681.052 688.538,681.052 691.019,681.052 693.499,681.052 695.979,681.052 698.459,681.052 700.939,681.052 703.42,681.052 705.9,681.052 708.38,681.052 710.86,681.052 713.34,681.052 715.821,681.052 718.301,681.052 720.781,681.052 723.261,681.052 725.741,681.052 728.222,681.052 730.702,681.052 733.182,681.052 735.662,681.052 738.142,681.052 740.623,681.052 743.103,681.052 745.583,681.052 748.063,681.052 750.543,681.052 753.024,681.052 755.504,681.052 757.984,681.052 760.464,681.052 762.944,681.052 765.425,681.052 767.905,681.052 770.385,681.052 772.865,681.052 775.346,681.052 777.826,681.052 780.306,681.052 782.786,681.052 785.266,681.052 787.747,681.052 790.227,681.052 792.707,681.052 795.187,681.052 797.667,681.052 800.148,681.052 802.628,681.052 805.108,681.052 807.588,681.052 810.068,681.052 812.549,681.052 815.029,681.052 817.509,681.052 819.989,681.052 822.469,681.052 824.95,681.052 827.43,681.052 829.91,681.052 832.39,681.052 834.87,681.052 837.351,681.052 839.831,681.052 842.311,681.052 844.791,681.052 847.271,681.052 849.752,681.052 852.232,681.052 854.712,681.052 857.192,681.052 859.672,681.052 862.153,681.052 864.633,681.052 867.113,681.052 869.593,681.052 872.073,681.052 874.554,681.052 877.034,681.052 879.514,681.052 881.994,681.052 884.475,681.052 886.955,681.052 889.435,681.052 891.915,681.052 894.395,681.052 896.876,681.052 899.356,681.052 901.836,681.052 904.316,681.052 906.796,681.052 909.277,681.052 911.757,681.052 914.237,681.052 916.717,681.052 919.197,681.052 921.678,681.052 924.158,681.052 926.638,681.052 929.118,681.052 931.598,681.052 934.079,681.052 936.559,681.052 939.039,681.052 941.519,681.052 943.999,681.052 946.48,681.052 948.96,681.052 951.44,681.052 953.92,681.052 956.4,681.052 958.881,681.052 961.361,681.052 963.841,681.052 966.321,681.052 968.801,681.052 971.282,681.052 973.762,681.052 976.242,681.052 978.722,681.052 981.203,681.052 983.683,681.052 986.163,681.052 988.643,681.052 991.123,681.052 993.604,681.052 996.084,681.052 998.564,681.052 1001.04,681.052 1003.52,681.052 1006,681.052 1008.48,681.052 1010.96,681.052 1013.45,681.052 1015.93,681.052 1018.41,681.052 1020.89,681.052 1023.37,681.052 1025.85,681.052 1028.33,681.052 1030.81,681.052 1033.29,681.052 1035.77,681.052 1038.25,681.052 1040.73,681.052 1043.21,681.052 1045.69,681.052 1048.17,681.052 1050.65,681.052 1053.13,681.052 1055.61,681.052 1058.09,681.052 1060.57,681.052 1063.05,681.052 1065.53,681.052 1068.01,681.052 1070.49,681.052 1072.97,681.052 1075.45,681.052 1077.93,681.052 1080.41,681.052 1082.89,681.052 1085.37,681.052 1087.85,681.052 1090.33,681.052 1092.81,681.052 1095.29,681.052 1097.77,681.052 1100.25,681.052 1102.73,681.052 1105.21,681.052 1107.69,681.052 1110.17,681.052 1112.65,681.052 1115.13,681.052 1117.61,681.052 1120.09,681.052 1122.57,681.052 1125.05,681.052 1127.53,681.052 1130.01,681.052 1132.5,681.052 1134.98,681.052 1137.46,681.052 1139.94,681.052 1142.42,681.052 1144.9,681.052 1147.38,681.052 1149.86,681.052 1152.34,681.052 1154.82,681.052 1157.3,681.052 1159.78,681.052 1162.26,681.052 1164.74,681.052 1167.22,681.052 1169.7,681.052 1172.18,681.052 1174.66,681.052 1177.14,681.052 1179.62,681.052 1182.1,681.052 1184.58,681.052 1187.06,681.052 1189.54,681.052 1192.02,681.052 1194.5,681.052 1196.98,681.052 1199.46,681.052 1201.94,681.052 1204.42,681.052 1206.9,681.052 1209.38,681.052 1211.86,681.052 1214.34,681.052 1216.82,681.052 1219.3,681.052 1221.78,681.052 1224.26,681.052 1226.74,681.052 1229.22,681.052 1231.7,681.052 1234.18,681.052 1236.66,681.052 1239.14,681.052 1241.62,681.052 1244.1,681.052 1246.58,681.052 1249.06,681.052 1251.54,681.052 1254.03,681.052 1256.51,681.052 1258.99,681.052 1261.47,681.052 1263.95,681.052 1266.43,681.052 1268.91,681.052 1271.39,681.052 1273.87,681.052 1276.35,681.052 1278.83,681.052 1281.31,681.052 1283.79,681.052 1286.27,681.052 1288.75,681.052 1291.23,681.052 1293.71,681.052 1296.19,681.052 1298.67,681.052 1301.15,681.052 1303.63,681.052 1306.11,681.052 1308.59,681.052 1311.07,681.052 1313.55,681.052 1316.03,681.052 1318.51,681.052 1320.99,681.052 1323.47,681.052 1325.95,681.052 1328.43,681.052 1330.91,681.052 1333.39,681.052 1335.87,681.052 1338.35,681.052 1340.83,681.052 1343.31,681.052 1345.79,681.052 1348.27,681.052 1350.75,681.052 1353.23,681.052 1355.71,681.052 1358.19,681.052 1360.67,681.052 1363.15,681.052 1365.63,681.052 1368.11,681.052 1370.59,681.052 1373.07,681.052 1375.56,681.052 1378.04,681.052 1380.52,681.052 1383,681.052 1385.48,681.052 1387.96,681.052 1390.44,681.052 1392.92,681.052 1395.4,681.052 1397.88,681.052 1400.36,681.052 1402.84,681.052 1405.32,681.052 1407.8,681.052 1410.28,681.052 1412.76,681.052 1415.24,681.052 1417.72,681.052 1420.2,681.052 1422.68,681.052 1425.16,681.052 1427.64,681.052 1430.12,681.052 1432.6,681.052 1435.08,681.052 1437.56,681.052 1440.04,681.052 1442.52,681.052 1445,681.052 1447.48,681.052 1449.96,681.052 1452.44,681.052 1454.92,681.052 1457.4,681.052 1459.88,681.052 1462.36,681.052 1464.84,681.052 1467.32,681.052 1469.8,681.052 1472.28,681.052 1474.76,681.052 1477.24,681.052 1479.72,681.052 1482.2,681.052 1484.68,681.052 1487.16,681.052 1489.64,681.052 1492.12,681.052 1494.6,681.052 1497.09,681.052 1499.57,681.052 1502.05,681.052 1504.53,681.052 1507.01,681.052 1509.49,681.052 1511.97,681.052 1514.45,681.052 1516.93,681.052 1519.41,681.052 1521.89,681.052 1524.37,681.052 1526.85,681.052 1529.33,681.052 1531.81,681.052 1534.29,681.052 1536.77,681.052 1539.25,681.052 1541.73,681.052 1544.21,681.052 1546.69,681.052 1549.17,681.052 1551.65,681.052 1554.13,681.052 1556.61,681.052 1559.09,681.052 1561.57,681.052 1564.05,681.052 1566.53,681.052 1569.01,681.052 1571.49,681.052 1573.97,681.052 1576.45,681.052 1578.93,681.052 1581.41,681.052 1583.89,681.052 1586.37,681.052 1588.85,681.052 1591.33,681.052 1593.81,681.052 1596.29,681.052 1598.77,681.052 1601.25,681.052 1603.73,681.052 1606.21,681.052 1608.69,681.052 1611.17,681.052 1613.65,681.052 1616.14,681.052 1618.62,681.052 1621.1,681.052 1623.58,681.052 1626.06,681.052 1628.54,681.052 1631.02,681.052 1633.5,681.052 1635.98,681.052 1638.46,681.052 1640.94,681.052 1643.42,681.052 1645.9,681.052 1648.38,681.052 1650.86,681.052 1653.34,681.052 1655.82,681.052 1658.3,681.052 1660.78,681.052 1663.26,681.052 1665.74,681.052 1668.22,681.052 1670.7,681.052 1673.18,681.052 1675.66,681.052 1678.14,681.052 1680.62,681.052 1683.1,681.052 1685.58,681.052 1688.06,681.052 1690.54,681.052 1693.02,681.052 1695.5,681.052 1697.98,681.052 1700.46,681.052 1702.94,681.052 1705.42,681.052 1707.9,681.052 1710.38,681.052 1712.86,681.052 1715.34,681.052 1717.82,681.052 1720.3,681.052 1722.78,681.052 1725.26,681.052 1727.74,681.052 1730.22,681.052 1732.7,681.052 1735.18,681.052 1737.67,681.052 1740.15,681.052 1742.63,681.052 1745.11,681.052 1747.59,681.052 1750.07,681.052 1752.55,681.052 1755.03,681.052 1757.51,681.052 1759.99,681.052 1762.47,681.052 1764.95,681.052 1767.43,681.052 1769.91,681.052 1772.39,681.052 1774.87,681.052 1777.35,681.052 1779.83,681.052 1782.31,681.052 1784.79,681.052 1787.27,681.052 1789.75,681.052 1792.23,681.052 1794.71,681.052 1797.19,681.052 1799.67,681.052 1802.15,681.052 1804.63,681.052 1807.11,681.052 1809.59,681.052 1812.07,681.052 1814.55,681.052 1817.03,681.052 1819.51,681.052 1821.99,681.052 1824.47,681.052 1826.95,681.052 1829.43,681.052 1831.91,681.052 1834.39,681.052 1836.87,681.052 1839.35,681.052 1841.83,681.052 1844.31,681.052 1846.79,681.052 1849.27,681.052 1851.75,681.052 1854.23,681.052 1856.71,681.052 1859.2,681.052 1861.68,681.052 1864.16,681.052 1866.64,681.052 1869.12,681.052 1871.6,681.052 1874.08,681.052 1876.56,681.052 1879.04,681.052 1881.52,681.052 1884,681.052 1886.48,681.052 1888.96,681.052 1891.44,681.052 1893.92,681.052 1896.4,681.052 1898.88,681.052 1901.36,681.052 1903.84,681.052 1906.32,681.052 1908.8,681.052 1911.28,681.052 1913.76,681.052 1916.24,681.052 1918.72,681.052 1921.2,681.052 1923.68,681.052 1926.16,681.052 1928.64,681.052 1931.12,681.052 1933.6,681.052 1936.08,681.052 1938.56,681.052 1941.04,681.052 1943.52,681.052 1946,681.052 1948.48,681.052 1950.96,681.052 1953.44,681.052 1955.92,681.052 1958.4,681.052 1960.88,681.052 1963.36,681.052 1965.84,681.052 1968.32,681.052 1970.8,681.052 1973.28,681.052 1975.76,681.052 1978.24,681.052 1980.73,681.052 1983.21,681.052 1985.69,681.052 1988.17,681.052 1990.65,681.052 1993.13,681.052 1995.61,681.052 1998.09,681.052 2000.57,681.052 2003.05,681.052 2005.53,681.052 2008.01,681.052 2010.49,681.052 2012.97,681.052 2015.45,681.052 2017.93,681.052 2020.41,681.052 2022.89,681.052 2025.37,681.052 2027.85,681.052 2030.33,681.052 2032.81,681.052 2035.29,681.052 2037.77,681.052 2040.25,681.052 2042.73,681.052 2045.21,681.052 2047.69,681.052 2050.17,681.052 2052.65,681.052 2055.13,681.052 2057.61,681.052 2060.09,681.052 2062.57,681.052 2065.05,681.052 2067.53,681.052 2070.01,681.052 2072.49,681.052 2074.97,681.052 2077.45,681.052 2079.93,681.052 2082.41,681.052 2084.89,681.052 2087.37,681.052 2089.85,681.052 2092.33,681.052 2094.81,681.052 2097.29,681.052 2099.77,681.052 2102.26,681.052 2104.74,681.052 2107.22,681.052 2109.7,681.052 2112.18,681.052 2114.66,681.052 2117.14,681.052 2119.62,681.052 2122.1,681.052 2124.58,681.052 2127.06,681.052 2129.54,681.052 2132.02,681.052 2134.5,681.052 2136.98,681.052 2139.46,681.052 2141.94,681.052 2144.42,681.052 2146.9,681.052 2149.38,681.052 2151.86,681.052 2154.34,681.052 2156.82,681.052 2159.3,681.052 2161.78,681.052 2164.26,681.052 2166.74,681.052 2169.22,681.052 2171.7,681.052 2174.18,681.052 2176.66,681.052 2179.14,681.052 2181.62,681.052 2184.1,681.052 2186.58,681.052 2189.06,681.052 2191.54,681.052 2194.02,681.052 2196.5,681.052 2198.98,681.052 2201.46,681.052 2203.94,681.052 2206.42,681.052 2208.9,681.052 2211.38,681.052 2213.86,681.052 2216.34,681.052 2218.82,681.052 2221.31,681.052 2223.79,681.052 2226.27,681.052 2228.75,681.052 2231.23,681.052 2233.71,681.052 2236.19,681.052 2238.67,681.052 2241.15,681.052 2243.63,681.052 2246.11,681.052 2248.59,681.052 2251.07,681.052 2253.55,681.052 2256.03,681.052 2258.51,681.052 2260.99,681.052 2263.47,681.052 2265.95,681.052 2268.43,681.052 2270.91,681.052 2273.39,681.052 2275.87,681.052 2278.35,681.052 2280.83,681.052 2283.31,681.052 2285.79,681.052 2288.27,681.052 2290.75,681.052 2293.23,681.052 "/>
<polyline clip-path="url(#clip442)" style="stroke:#56b4e9; stroke-linecap:round; stroke-linejoin:round; stroke-width:4; stroke-opacity:1; fill:none" stroke-dasharray="16, 10" points="309.067,160.256 311.547,160.256 314.027,160.256 316.508,160.256 318.988,160.256 321.468,160.256 323.948,160.256 326.428,160.256 328.909,160.256 331.389,160.256 333.869,160.256 336.349,160.256 338.829,160.256 341.31,160.256 343.79,160.256 346.27,160.256 348.75,160.256 351.23,160.256 353.711,160.256 356.191,160.256 358.671,160.256 361.151,160.256 363.631,160.256 366.112,160.256 368.592,160.256 371.072,160.256 373.552,160.256 376.032,160.256 378.513,160.256 380.993,160.256 383.473,160.256 385.953,160.256 388.434,160.256 390.914,160.256 393.394,160.256 395.874,160.256 398.354,160.256 400.835,160.256 403.315,160.256 405.795,160.256 408.275,160.256 410.755,160.256 413.236,160.256 415.716,160.256 418.196,160.256 420.676,160.256 423.156,160.256 425.637,160.256 428.117,160.256 430.597,160.256 433.077,160.256 435.557,160.256 438.038,160.256 440.518,160.256 442.998,160.256 445.478,160.256 447.958,160.256 450.439,160.256 452.919,160.256 455.399,160.256 457.879,160.256 460.359,160.256 462.84,160.256 465.32,160.256 467.8,160.256 470.28,160.256 472.76,160.256 475.241,160.256 477.721,160.256 480.201,160.256 482.681,160.256 485.162,160.256 487.642,160.256 490.122,160.256 492.602,160.256 495.082,160.256 497.563,160.256 500.043,160.256 502.523,160.256 505.003,160.256 507.483,160.256 509.964,160.256 512.444,160.256 514.924,160.256 517.404,160.256 519.884,160.256 522.365,160.256 524.845,160.256 527.325,160.256 529.805,160.256 532.285,160.256 534.766,160.256 537.246,160.256 539.726,160.256 542.206,160.256 544.686,160.256 547.167,160.256 549.647,160.256 552.127,160.256 554.607,160.256 557.087,160.256 559.568,160.256 562.048,160.256 564.528,160.256 567.008,160.256 569.488,160.256 571.969,160.256 574.449,160.256 576.929,160.256 579.409,160.256 581.89,160.256 584.37,160.256 586.85,160.256 589.33,160.256 591.81,160.256 594.291,160.256 596.771,160.256 599.251,160.256 601.731,160.256 604.211,160.256 606.692,160.256 609.172,160.256 611.652,160.256 614.132,160.256 616.612,160.256 619.093,160.256 621.573,160.256 624.053,160.256 626.533,160.256 629.013,160.256 631.494,160.256 633.974,160.256 636.454,160.256 638.934,160.256 641.414,160.256 643.895,160.256 646.375,160.256 648.855,160.256 651.335,160.256 653.815,160.256 656.296,160.256 658.776,160.256 661.256,160.256 663.736,160.256 666.216,160.256 668.697,160.256 671.177,160.256 673.657,160.256 676.137,160.256 678.618,160.256 681.098,160.256 683.578,160.256 686.058,160.256 688.538,160.256 691.019,160.256 693.499,160.256 695.979,160.256 698.459,160.256 700.939,160.256 703.42,160.256 705.9,160.256 708.38,160.256 710.86,160.256 713.34,160.256 715.821,160.256 718.301,160.256 720.781,160.256 723.261,160.256 725.741,160.256 728.222,160.256 730.702,160.256 733.182,160.256 735.662,160.256 738.142,160.256 740.623,160.256 743.103,160.256 745.583,160.256 748.063,160.256 750.543,160.256 753.024,160.256 755.504,160.256 757.984,160.256 760.464,160.256 762.944,160.256 765.425,160.256 767.905,160.256 770.385,160.256 772.865,160.256 775.346,160.256 777.826,160.256 780.306,160.256 782.786,160.256 785.266,160.256 787.747,160.256 790.227,160.256 792.707,160.256 795.187,160.256 797.667,160.256 800.148,160.256 802.628,160.256 805.108,160.256 807.588,160.256 810.068,160.256 812.549,160.256 815.029,160.256 817.509,160.256 819.989,160.256 822.469,160.256 824.95,160.256 827.43,160.256 829.91,160.256 832.39,160.256 834.87,160.256 837.351,160.256 839.831,160.256 842.311,160.256 844.791,160.256 847.271,160.256 849.752,160.256 852.232,160.256 854.712,160.256 857.192,160.256 859.672,160.256 862.153,160.256 864.633,160.256 867.113,160.256 869.593,160.256 872.073,160.256 874.554,160.256 877.034,160.256 879.514,160.256 881.994,160.256 884.475,160.256 886.955,160.256 889.435,160.256 891.915,160.256 894.395,160.256 896.876,160.256 899.356,160.256 901.836,160.256 904.316,160.256 906.796,160.256 909.277,160.256 911.757,160.256 914.237,160.256 916.717,160.256 919.197,160.256 921.678,160.256 924.158,160.256 926.638,160.256 929.118,160.256 931.598,160.256 934.079,160.256 936.559,160.256 939.039,160.256 941.519,160.256 943.999,160.256 946.48,160.256 948.96,160.256 951.44,160.256 953.92,160.256 956.4,160.256 958.881,160.256 961.361,160.256 963.841,160.256 966.321,160.256 968.801,160.256 971.282,160.256 973.762,160.256 976.242,160.256 978.722,160.256 981.203,160.256 983.683,160.256 986.163,160.256 988.643,160.256 991.123,160.256 993.604,160.256 996.084,160.256 998.564,160.256 1001.04,160.256 1003.52,160.256 1006,160.256 1008.48,160.256 1010.96,160.256 1013.45,160.256 1015.93,160.256 1018.41,160.256 1020.89,160.256 1023.37,160.256 1025.85,160.256 1028.33,160.256 1030.81,160.256 1033.29,160.256 1035.77,160.256 1038.25,160.256 1040.73,160.256 1043.21,160.256 1045.69,160.256 1048.17,160.256 1050.65,160.256 1053.13,160.256 1055.61,160.256 1058.09,160.256 1060.57,160.256 1063.05,160.256 1065.53,160.256 1068.01,160.256 1070.49,160.256 1072.97,160.256 1075.45,160.256 1077.93,160.256 1080.41,160.256 1082.89,160.256 1085.37,160.256 1087.85,160.256 1090.33,160.256 1092.81,160.256 1095.29,160.256 1097.77,160.256 1100.25,160.256 1102.73,160.256 1105.21,160.256 1107.69,160.256 1110.17,160.256 1112.65,160.256 1115.13,160.256 1117.61,160.256 1120.09,160.256 1122.57,160.256 1125.05,160.256 1127.53,160.256 1130.01,160.256 1132.5,160.256 1134.98,160.256 1137.46,160.256 1139.94,160.256 1142.42,160.256 1144.9,160.256 1147.38,160.256 1149.86,160.256 1152.34,160.256 1154.82,160.256 1157.3,160.256 1159.78,160.256 1162.26,160.256 1164.74,160.256 1167.22,160.256 1169.7,160.256 1172.18,160.256 1174.66,160.256 1177.14,160.256 1179.62,160.256 1182.1,160.256 1184.58,160.256 1187.06,160.256 1189.54,160.256 1192.02,160.256 1194.5,160.256 1196.98,160.256 1199.46,160.256 1201.94,160.256 1204.42,160.256 1206.9,160.256 1209.38,160.256 1211.86,160.256 1214.34,160.256 1216.82,160.256 1219.3,160.256 1221.78,160.256 1224.26,160.256 1226.74,160.256 1229.22,160.256 1231.7,160.256 1234.18,160.256 1236.66,160.256 1239.14,160.256 1241.62,160.256 1244.1,160.256 1246.58,160.256 1249.06,160.256 1251.54,160.256 1254.03,160.256 1256.51,160.256 1258.99,160.256 1261.47,160.256 1263.95,160.256 1266.43,160.256 1268.91,160.256 1271.39,160.256 1273.87,160.256 1276.35,160.256 1278.83,160.256 1281.31,160.256 1283.79,160.256 1286.27,160.256 1288.75,160.256 1291.23,160.256 1293.71,160.256 1296.19,160.256 1298.67,160.256 1301.15,160.256 1303.63,160.256 1306.11,160.256 1308.59,160.256 1311.07,160.256 1313.55,160.256 1316.03,160.256 1318.51,160.256 1320.99,160.256 1323.47,160.256 1325.95,160.256 1328.43,160.256 1330.91,160.256 1333.39,160.256 1335.87,160.256 1338.35,160.256 1340.83,160.256 1343.31,160.256 1345.79,160.256 1348.27,160.256 1350.75,160.256 1353.23,160.256 1355.71,160.256 1358.19,160.256 1360.67,160.256 1363.15,160.256 1365.63,160.256 1368.11,160.256 1370.59,160.256 1373.07,160.256 1375.56,160.256 1378.04,160.256 1380.52,160.256 1383,160.256 1385.48,160.256 1387.96,160.256 1390.44,160.256 1392.92,160.256 1395.4,160.256 1397.88,160.256 1400.36,160.256 1402.84,160.256 1405.32,160.256 1407.8,160.256 1410.28,160.256 1412.76,160.256 1415.24,160.256 1417.72,160.256 1420.2,160.256 1422.68,160.256 1425.16,160.256 1427.64,160.256 1430.12,160.256 1432.6,160.256 1435.08,160.256 1437.56,160.256 1440.04,160.256 1442.52,160.256 1445,160.256 1447.48,160.256 1449.96,160.256 1452.44,160.256 1454.92,160.256 1457.4,160.256 1459.88,160.256 1462.36,160.256 1464.84,160.256 1467.32,160.256 1469.8,160.256 1472.28,160.256 1474.76,160.256 1477.24,160.256 1479.72,160.256 1482.2,160.256 1484.68,160.256 1487.16,160.256 1489.64,160.256 1492.12,160.256 1494.6,160.256 1497.09,160.256 1499.57,160.256 1502.05,160.256 1504.53,160.256 1507.01,160.256 1509.49,160.256 1511.97,160.256 1514.45,160.256 1516.93,160.256 1519.41,160.256 1521.89,160.256 1524.37,160.256 1526.85,160.256 1529.33,160.256 1531.81,160.256 1534.29,160.256 1536.77,160.256 1539.25,160.256 1541.73,160.256 1544.21,160.256 1546.69,160.256 1549.17,160.256 1551.65,160.256 1554.13,160.256 1556.61,160.256 1559.09,160.256 1561.57,160.256 1564.05,160.256 1566.53,160.256 1569.01,160.256 1571.49,160.256 1573.97,160.256 1576.45,160.256 1578.93,160.256 1581.41,160.256 1583.89,160.256 1586.37,160.256 1588.85,160.256 1591.33,160.256 1593.81,160.256 1596.29,160.256 1598.77,160.256 1601.25,160.256 1603.73,160.256 1606.21,160.256 1608.69,160.256 1611.17,160.256 1613.65,160.256 1616.14,160.256 1618.62,160.256 1621.1,160.256 1623.58,160.256 1626.06,160.256 1628.54,160.256 1631.02,160.256 1633.5,160.256 1635.98,160.256 1638.46,160.256 1640.94,160.256 1643.42,160.256 1645.9,160.256 1648.38,160.256 1650.86,160.256 1653.34,160.256 1655.82,160.256 1658.3,160.256 1660.78,160.256 1663.26,160.256 1665.74,160.256 1668.22,160.256 1670.7,160.256 1673.18,160.256 1675.66,160.256 1678.14,160.256 1680.62,160.256 1683.1,160.256 1685.58,160.256 1688.06,160.256 1690.54,160.256 1693.02,160.256 1695.5,160.256 1697.98,160.256 1700.46,160.256 1702.94,160.256 1705.42,160.256 1707.9,160.256 1710.38,160.256 1712.86,160.256 1715.34,160.256 1717.82,160.256 1720.3,160.256 1722.78,160.256 1725.26,160.256 1727.74,160.256 1730.22,160.256 1732.7,160.256 1735.18,160.256 1737.67,160.256 1740.15,160.256 1742.63,160.256 1745.11,160.256 1747.59,160.256 1750.07,160.256 1752.55,160.256 1755.03,160.256 1757.51,160.256 1759.99,160.256 1762.47,160.256 1764.95,160.256 1767.43,160.256 1769.91,160.256 1772.39,160.256 1774.87,160.256 1777.35,160.256 1779.83,160.256 1782.31,160.256 1784.79,160.256 1787.27,160.256 1789.75,160.256 1792.23,160.256 1794.71,160.256 1797.19,160.256 1799.67,160.256 1802.15,160.256 1804.63,160.256 1807.11,160.256 1809.59,160.256 1812.07,160.256 1814.55,160.256 1817.03,160.256 1819.51,160.256 1821.99,160.256 1824.47,160.256 1826.95,160.256 1829.43,160.256 1831.91,160.256 1834.39,160.256 1836.87,160.256 1839.35,160.256 1841.83,160.256 1844.31,160.256 1846.79,160.256 1849.27,160.256 1851.75,160.256 1854.23,160.256 1856.71,160.256 1859.2,160.256 1861.68,160.256 1864.16,160.256 1866.64,160.256 1869.12,160.256 1871.6,160.256 1874.08,160.256 1876.56,160.256 1879.04,160.256 1881.52,160.256 1884,160.256 1886.48,160.256 1888.96,160.256 1891.44,160.256 1893.92,160.256 1896.4,160.256 1898.88,160.256 1901.36,160.256 1903.84,160.256 1906.32,160.256 1908.8,160.256 1911.28,160.256 1913.76,160.256 1916.24,160.256 1918.72,160.256 1921.2,160.256 1923.68,160.256 1926.16,160.256 1928.64,160.256 1931.12,160.256 1933.6,160.256 1936.08,160.256 1938.56,160.256 1941.04,160.256 1943.52,160.256 1946,160.256 1948.48,160.256 1950.96,160.256 1953.44,160.256 1955.92,160.256 1958.4,160.256 1960.88,160.256 1963.36,160.256 1965.84,160.256 1968.32,160.256 1970.8,160.256 1973.28,160.256 1975.76,160.256 1978.24,160.256 1980.73,160.256 1983.21,160.256 1985.69,160.256 1988.17,160.256 1990.65,160.256 1993.13,160.256 1995.61,160.256 1998.09,160.256 2000.57,160.256 2003.05,160.256 2005.53,160.256 2008.01,160.256 2010.49,160.256 2012.97,160.256 2015.45,160.256 2017.93,160.256 2020.41,160.256 2022.89,160.256 2025.37,160.256 2027.85,160.256 2030.33,160.256 2032.81,160.256 2035.29,160.256 2037.77,160.256 2040.25,160.256 2042.73,160.256 2045.21,160.256 2047.69,160.256 2050.17,160.256 2052.65,160.256 2055.13,160.256 2057.61,160.256 2060.09,160.256 2062.57,160.256 2065.05,160.256 2067.53,160.256 2070.01,160.256 2072.49,160.256 2074.97,160.256 2077.45,160.256 2079.93,160.256 2082.41,160.256 2084.89,160.256 2087.37,160.256 2089.85,160.256 2092.33,160.256 2094.81,160.256 2097.29,160.256 2099.77,160.256 2102.26,160.256 2104.74,160.256 2107.22,160.256 2109.7,160.256 2112.18,160.256 2114.66,160.256 2117.14,160.256 2119.62,160.256 2122.1,160.256 2124.58,160.256 2127.06,160.256 2129.54,160.256 2132.02,160.256 2134.5,160.256 2136.98,160.256 2139.46,160.256 2141.94,160.256 2144.42,160.256 2146.9,160.256 2149.38,160.256 2151.86,160.256 2154.34,160.256 2156.82,160.256 2159.3,160.256 2161.78,160.256 2164.26,160.256 2166.74,160.256 2169.22,160.256 2171.7,160.256 2174.18,160.256 2176.66,160.256 2179.14,160.256 2181.62,160.256 2184.1,160.256 2186.58,160.256 2189.06,160.256 2191.54,160.256 2194.02,160.256 2196.5,160.256 2198.98,160.256 2201.46,160.256 2203.94,160.256 2206.42,160.256 2208.9,160.256 2211.38,160.256 2213.86,160.256 2216.34,160.256 2218.82,160.256 2221.31,160.256 2223.79,160.256 2226.27,160.256 2228.75,160.256 2231.23,160.256 2233.71,160.256 2236.19,160.256 2238.67,160.256 2241.15,160.256 2243.63,160.256 2246.11,160.256 2248.59,160.256 2251.07,160.256 2253.55,160.256 2256.03,160.256 2258.51,160.256 2260.99,160.256 2263.47,160.256 2265.95,160.256 2268.43,160.256 2270.91,160.256 2273.39,160.256 2275.87,160.256 2278.35,160.256 2280.83,160.256 2283.31,160.256 2285.79,160.256 2288.27,160.256 2290.75,160.256 2293.23,160.256 "/>
<path clip-path="url(#clip440)" d="M1756.7 1379.86 L2282.65 1379.86 L2282.65 1276.18 L1756.7 1276.18  Z" fill="#ffffff" fill-rule="evenodd" fill-opacity="1"/>
<polyline clip-path="url(#clip440)" style="stroke:#000000; stroke-linecap:round; stroke-linejoin:round; stroke-width:4; stroke-opacity:1; fill:none" points="1756.7,1379.86 2282.65,1379.86 2282.65,1276.18 1756.7,1276.18 1756.7,1379.86 "/>
<polyline clip-path="url(#clip440)" style="stroke:#56b4e9; stroke-linecap:round; stroke-linejoin:round; stroke-width:4; stroke-opacity:1; fill:none" points="1780.07,1328.02 1920.29,1328.02 "/>
<path clip-path="url(#clip440)" d="M1943.66 1310.74 L1948.33 1310.74 L1948.33 1345.3 L1943.66 1345.3 L1943.66 1310.74 Z" fill="#000000" fill-rule="nonzero" fill-opacity="1" /><path clip-path="url(#clip440)" d="M1979 1329.65 L1979 1345.3 L1974.74 1345.3 L1974.74 1329.79 Q1974.74 1326.11 1973.31 1324.28 Q1971.87 1322.45 1969 1322.45 Q1965.55 1322.45 1963.56 1324.65 Q1961.57 1326.85 1961.57 1330.64 L1961.57 1345.3 L1957.29 1345.3 L1957.29 1319.37 L1961.57 1319.37 L1961.57 1323.4 Q1963.1 1321.06 1965.16 1319.9 Q1967.24 1318.75 1969.95 1318.75 Q1974.42 1318.75 1976.71 1321.52 Q1979 1324.28 1979 1329.65 Z" fill="#000000" fill-rule="nonzero" fill-opacity="1" /><path clip-path="url(#clip440)" d="M1991.62 1341.41 L1991.62 1355.16 L1987.34 1355.16 L1987.34 1319.37 L1991.62 1319.37 L1991.62 1323.31 Q1992.96 1320.99 1995 1319.88 Q1997.06 1318.75 1999.91 1318.75 Q2004.63 1318.75 2007.57 1322.5 Q2010.53 1326.25 2010.53 1332.36 Q2010.53 1338.47 2007.57 1342.22 Q2004.63 1345.97 1999.91 1345.97 Q1997.06 1345.97 1995 1344.86 Q1992.96 1343.72 1991.62 1341.41 M2006.11 1332.36 Q2006.11 1327.66 2004.17 1325 Q2002.24 1322.31 1998.86 1322.31 Q1995.48 1322.31 1993.54 1325 Q1991.62 1327.66 1991.62 1332.36 Q1991.62 1337.06 1993.54 1339.74 Q1995.48 1342.4 1998.86 1342.4 Q2002.24 1342.4 2004.17 1339.74 Q2006.11 1337.06 2006.11 1332.36 Z" fill="#000000" fill-rule="nonzero" fill-opacity="1" /><path clip-path="url(#clip440)" d="M2017.15 1335.06 L2017.15 1319.37 L2021.41 1319.37 L2021.41 1334.9 Q2021.41 1338.58 2022.85 1340.44 Q2024.28 1342.26 2027.15 1342.26 Q2030.6 1342.26 2032.59 1340.06 Q2034.61 1337.87 2034.61 1334.07 L2034.61 1319.37 L2038.86 1319.37 L2038.86 1345.3 L2034.61 1345.3 L2034.61 1341.31 Q2033.05 1343.68 2030.99 1344.83 Q2028.96 1345.97 2026.25 1345.97 Q2021.78 1345.97 2019.47 1343.19 Q2017.15 1340.41 2017.15 1335.06 M2027.87 1318.75 L2027.87 1318.75 Z" fill="#000000" fill-rule="nonzero" fill-opacity="1" /><path clip-path="url(#clip440)" d="M2051.85 1312.01 L2051.85 1319.37 L2060.62 1319.37 L2060.62 1322.68 L2051.85 1322.68 L2051.85 1336.75 Q2051.85 1339.93 2052.71 1340.83 Q2053.59 1341.73 2056.25 1341.73 L2060.62 1341.73 L2060.62 1345.3 L2056.25 1345.3 Q2051.32 1345.3 2049.44 1343.47 Q2047.57 1341.62 2047.57 1336.75 L2047.57 1322.68 L2044.44 1322.68 L2044.44 1319.37 L2047.57 1319.37 L2047.57 1312.01 L2051.85 1312.01 Z" fill="#000000" fill-rule="nonzero" fill-opacity="1" /><path clip-path="url(#clip440)" d="M2107.36 1313.4 L2107.36 1318.33 Q2105 1316.13 2102.31 1315.04 Q2099.65 1313.95 2096.64 1313.95 Q2090.72 1313.95 2087.57 1317.59 Q2084.42 1321.2 2084.42 1328.05 Q2084.42 1334.88 2087.57 1338.51 Q2090.72 1342.12 2096.64 1342.12 Q2099.65 1342.12 2102.31 1341.04 Q2105 1339.95 2107.36 1337.75 L2107.36 1342.63 Q2104.91 1344.3 2102.15 1345.13 Q2099.42 1345.97 2096.36 1345.97 Q2088.52 1345.97 2084 1341.18 Q2079.49 1336.36 2079.49 1328.05 Q2079.49 1319.72 2084 1314.93 Q2088.52 1310.11 2096.36 1310.11 Q2099.47 1310.11 2102.2 1310.94 Q2104.95 1311.75 2107.36 1313.4 Z" fill="#000000" fill-rule="nonzero" fill-opacity="1" /><path clip-path="url(#clip440)" d="M2140.46 1313.4 L2140.46 1318.33 Q2138.1 1316.13 2135.41 1315.04 Q2132.75 1313.95 2129.74 1313.95 Q2123.82 1313.95 2120.67 1317.59 Q2117.52 1321.2 2117.52 1328.05 Q2117.52 1334.88 2120.67 1338.51 Q2123.82 1342.12 2129.74 1342.12 Q2132.75 1342.12 2135.41 1341.04 Q2138.1 1339.95 2140.46 1337.75 L2140.46 1342.63 Q2138.01 1344.3 2135.25 1345.13 Q2132.52 1345.97 2129.47 1345.97 Q2121.62 1345.97 2117.1 1341.18 Q2112.59 1336.36 2112.59 1328.05 Q2112.59 1319.72 2117.1 1314.93 Q2121.62 1310.11 2129.47 1310.11 Q2132.57 1310.11 2135.3 1310.94 Q2138.05 1311.75 2140.46 1313.4 Z" fill="#000000" fill-rule="nonzero" fill-opacity="1" /><path clip-path="url(#clip440)" d="M2173.17 1313.81 Q2169.56 1313.81 2167.73 1317.38 Q2165.92 1320.92 2165.92 1328.05 Q2165.92 1335.16 2167.73 1338.72 Q2169.56 1342.26 2173.17 1342.26 Q2176.8 1342.26 2178.61 1338.72 Q2180.44 1335.16 2180.44 1328.05 Q2180.44 1320.92 2178.61 1317.38 Q2176.8 1313.81 2173.17 1313.81 M2173.17 1310.11 Q2178.98 1310.11 2182.03 1314.72 Q2185.11 1319.3 2185.11 1328.05 Q2185.11 1336.78 2182.03 1341.38 Q2178.98 1345.97 2173.17 1345.97 Q2167.36 1345.97 2164.28 1341.38 Q2161.22 1336.78 2161.22 1328.05 Q2161.22 1319.3 2164.28 1314.72 Q2167.36 1310.11 2173.17 1310.11 Z" fill="#000000" fill-rule="nonzero" fill-opacity="1" /><path clip-path="url(#clip440)" d="M2193.33 1339.42 L2198.22 1339.42 L2198.22 1345.3 L2193.33 1345.3 L2193.33 1339.42 Z" fill="#000000" fill-rule="nonzero" fill-opacity="1" /><path clip-path="url(#clip440)" d="M2218.4 1313.81 Q2214.79 1313.81 2212.96 1317.38 Q2211.15 1320.92 2211.15 1328.05 Q2211.15 1335.16 2212.96 1338.72 Q2214.79 1342.26 2218.4 1342.26 Q2222.03 1342.26 2223.84 1338.72 Q2225.67 1335.16 2225.67 1328.05 Q2225.67 1320.92 2223.84 1317.38 Q2222.03 1313.81 2218.4 1313.81 M2218.4 1310.11 Q2224.21 1310.11 2227.27 1314.72 Q2230.34 1319.3 2230.34 1328.05 Q2230.34 1336.78 2227.27 1341.38 Q2224.21 1345.97 2218.4 1345.97 Q2212.59 1345.97 2209.51 1341.38 Q2206.46 1336.78 2206.46 1328.05 Q2206.46 1319.3 2209.51 1314.72 Q2212.59 1310.11 2218.4 1310.11 Z" fill="#000000" fill-rule="nonzero" fill-opacity="1" /><path clip-path="url(#clip440)" d="M2239.37 1341.36 L2247.01 1341.36 L2247.01 1315 L2238.7 1316.66 L2238.7 1312.4 L2246.96 1310.74 L2251.64 1310.74 L2251.64 1341.36 L2259.28 1341.36 L2259.28 1345.3 L2239.37 1345.3 L2239.37 1341.36 Z" fill="#000000" fill-rule="nonzero" fill-opacity="1" /></svg>
